<?xml version="1.0" encoding="UTF-8" standalone="no"?>
<!-- Created with Inkscape (http://www.inkscape.org/) -->

<svg
   width="150"
   height="150"
   viewBox="0 0 150 150"
   version="1.1"
   id="svg1"
   inkscape:version="1.3.2 (091e20e, 2023-11-25, custom)"
   sodipodi:docname="coco.svg"
   xmlns:inkscape="http://www.inkscape.org/namespaces/inkscape"
   xmlns:sodipodi="http://sodipodi.sourceforge.net/DTD/sodipodi-0.dtd"
   xmlns="http://www.w3.org/2000/svg"
   xmlns:svg="http://www.w3.org/2000/svg">
  <sodipodi:namedview
     id="namedview1"
     pagecolor="#ffffff"
     bordercolor="#000000"
     borderopacity="0.25"
     inkscape:showpageshadow="2"
     inkscape:pageopacity="0.0"
     inkscape:pagecheckerboard="0"
     inkscape:deskcolor="#d1d1d1"
     inkscape:document-units="px"
     inkscape:zoom="3.2979167"
     inkscape:cx="69.892609"
     inkscape:cy="149.03348"
     inkscape:window-width="2560"
     inkscape:window-height="1369"
     inkscape:window-x="-8"
     inkscape:window-y="-8"
     inkscape:window-maximized="1"
     inkscape:current-layer="layer1" />
  <defs
     id="defs1" />
  <g
     inkscape:label="Layer 1"
     inkscape:groupmode="layer"
     id="layer1">
    <g
       id="g131"
       transform="matrix(3.0912834,0.64947619,-0.64947619,3.0912834,-366.92437,77.06568)">
      <path
         style="fill:none;stroke:#000000;stroke-width:1.05833;stroke-linecap:round;stroke-linejoin:round;stroke-dasharray:none;stroke-opacity:1"
         d="m 118.05442,-31.223676 c -0.13903,3.313727 0.96173,6.56993 3.76804,8.960737 6.6,5.041112 16.57761,5.379087 23.79462,1.402885 6.71588,-3.431078 9.40602,-12.301788 5.54842,-18.843584 m -8.6325,-6.928929 c -3.30067,-0.89447 -6.96506,-0.772146 -10.27177,0.184251 -2.53696,0.56599 -4.99911,1.494225 -7.24553,2.806743"
         id="path1"
         sodipodi:nodetypes="ccccccc" />
      <path
         style="fill:none;stroke:#000000;stroke-width:1.05833;stroke-linecap:round;stroke-linejoin:round;stroke-dasharray:none;stroke-opacity:1"
         d="m 142.87505,-45.890531 c 0.67131,-1.105527 1.75856,-1.970236 2.77551,-2.714282 1.47007,-0.789579 2.79693,-1.887348 4.47257,-2.220066 1.24305,-0.989952 1.6013,0.389185 1.58024,1.459084 0.6614,1.526779 0.54769,3.257243 0.55179,4.88637 -0.0701,2.059334 -1.06137,3.91183 -1.73441,5.817977 -0.0511,0.04125 -0.18188,0.08348 -0.10507,0.17925"
         id="path2" />
      <path
         style="fill:none;stroke:#000000;stroke-width:1.05833;stroke-linecap:round;stroke-linejoin:round;stroke-dasharray:none;stroke-opacity:1"
         d="m 124.75109,-42.583239 c -1.38021,-0.04503 -2.46757,-1.119647 -3.8424,-1.201377 -1.1829,-0.237089 -2.28923,-0.771355 -3.49246,-0.922762 -0.68606,-0.146943 -1.36921,-0.642712 -2.0882,-0.418227 -0.62941,0.381482 -0.54093,1.25138 -0.68289,1.883209 -0.13096,1.405049 -0.10728,2.823526 -0.0208,4.230616 0.13409,1.260922 0.45134,2.529083 1.06588,3.642263 0.77367,0.999739 1.59508,1.965825 2.32483,2.996779 0.10711,0.110541 0.24961,0.174923 0.386,0.240541"
         id="path7" />
      <path
         style="fill:none;stroke:#000000;stroke-width:1.05833;stroke-linecap:round;stroke-linejoin:round;stroke-dasharray:none;stroke-opacity:1"
         d="m 129.51359,-17.976989 c 0.002,0.937502 -0.65001,1.647962 -0.99695,2.461921 -0.33479,0.817717 -1.0391,1.469495 -1.2735,2.349025 -0.21785,0.773771 -0.89857,2.246541 -0.96872,3.3894722"
         id="path11"
         sodipodi:nodetypes="cccc" />
      <path
         style="fill:none;stroke:#000000;stroke-width:1.05833;stroke-linecap:round;stroke-linejoin:round;stroke-dasharray:none;stroke-opacity:1"
         d="m 148.03442,-20.755114 c 0.71105,-0.20844 1.05211,0.671882 1.62778,0.915158 0.89992,0.723735 1.65373,1.608363 2.47962,2.411007 0.68429,0.818151 1.24351,1.729278 1.87637,2.579 0.6389,0.470897 0.86666,1.260024 1.23338,1.892692 0.0582,0.180577 0.55472,1.231669 0.65431,1.396409"
         id="path12"
         sodipodi:nodetypes="cccccc" />
      <path
         style="fill:none;stroke:#000000;stroke-width:1.05833;stroke-linecap:round;stroke-linejoin:round;stroke-dasharray:none;stroke-opacity:1"
         d="m 127.66151,-33.190531 c -1.74342,0.895768 -2.48114,3.275285 -1.60812,5.020778 0.31909,0.8307 0.97014,1.55028 1.85732,1.762293 0.64879,0.169298 1.34951,0.26172 2.01064,0.154345 0.83845,-0.227418 1.62029,-0.794875 1.85106,-1.669725 0.29775,-1.097835 0.48347,-2.336426 0.0315,-3.420732 -0.5824,-1.284962 -2.03507,-1.990115 -3.39457,-2.052897 -0.25928,-0.03954 -0.62093,-0.149884 -0.79686,0.123222"
         id="path14" />
      <path
         style="fill:none;stroke:#000000;stroke-width:1.05833;stroke-linecap:round;stroke-linejoin:round;stroke-dasharray:none;stroke-opacity:1"
         d="m 139.78273,-34.629203 c -1.78425,1.347833 -1.13188,4.315292 0.77639,5.222534 1.55285,1.040121 4.21554,0.884969 4.93834,-1.080525 0.84646,-1.831166 0.0199,-4.237003 -1.88828,-5.008454 -1.16372,-0.592399 -2.67384,-0.372166 -3.57841,0.58534"
         id="path15" />
      <path
         style="fill:none;stroke:#000000;stroke-width:1.05833;stroke-linecap:round;stroke-linejoin:round;stroke-dasharray:none;stroke-opacity:1"
         d="m 135.20213,-25.732588 c 0.93413,-0.308178 1.87067,-0.632195 2.84702,-0.778374 0.24256,0.361535 -0.10615,0.759042 -0.32016,1.040714 -0.27349,0.335006 -0.57757,0.652874 -0.76456,1.046904 -0.36371,0.193795 -0.52641,-0.433284 -0.8045,-0.590198 -0.28546,-0.183807 -0.63627,-0.250457 -0.8795,-0.516074 -0.0518,-0.0474 -0.10045,-0.09842 -0.14427,-0.15336"
         id="path17" />
      <path
         style="fill:none;stroke:#000000;stroke-width:1.05833;stroke-linecap:round;stroke-linejoin:round;stroke-dasharray:none;stroke-opacity:1"
         d="m 136.8227,-23.814359 c 0.0471,0.828051 -0.30135,1.773757 -1.0949,2.139473 -0.3405,0.140117 -0.71649,0.145458 -1.07692,0.197488 -0.34739,0.02608 -0.71341,-0.008 -1.01961,-0.187218"
         id="path19" />
      <path
         style="fill:none;stroke:#000000;stroke-width:1.05833;stroke-linecap:round;stroke-linejoin:round;stroke-dasharray:none;stroke-opacity:1"
         d="m 137.07075,-23.764749 c 0.0778,0.760381 0.86682,1.220096 1.57744,1.214371 0.32297,-0.02479 0.64008,0.104278 0.96656,0.05129 0.6489,-0.04149 1.26349,-0.467138 1.47238,-1.091409 0.0311,-0.06228 0.0572,-0.126829 0.0846,-0.190785"
         id="path20" />
      <path
         style="fill:none;stroke:#000000;stroke-width:1.05833;stroke-linecap:round;stroke-linejoin:round;stroke-dasharray:none;stroke-opacity:1"
         d="m 137.73221,-37.076599 c 0.61494,-0.682957 3.50285,-1.795199 4.81208,-2.000916"
         id="path23"
         sodipodi:nodetypes="cc" />
      <path
         style="fill:none;stroke:#000000;stroke-width:1.05833;stroke-linecap:round;stroke-linejoin:round;stroke-dasharray:none;stroke-opacity:1"
         d="m 131.58065,-35.753682 c -1.73976,-0.04407 -3.87981,-0.347905 -5.50664,-0.181892"
         id="path24"
         sodipodi:nodetypes="cc" />
      <path
         style="fill:none;stroke:#000000;stroke-width:1.05833;stroke-linecap:round;stroke-linejoin:round;stroke-dasharray:none;stroke-opacity:1"
         d="m 127.16424,-32.321311 c 0.99656,-0.801392 1.19213,0.208685 0.0896,0.375146 -1.70138,1.085187 1.6931,-0.586134 2.36371,-0.587274 -0.36623,0.343433 -2.75896,1.301698 -3.74184,2.163136 1.58298,-0.52764 3.14078,-1.149763 4.75931,-1.560677 -1.1806,0.631506 -4.05283,1.87685 -4.1954,2.011212 1.58932,-0.699914 3.27967,-1.118938 4.93426,-1.62983 -1.59443,0.713174 -3.25256,1.304267 -4.78116,2.153702 1.26865,-0.450061 4.15474,-1.359813 4.49059,-1.167726 -1.50644,0.787637 -3.15843,1.246929 -4.67366,2.012726 1.49522,-0.543214 4.7552,-0.968813 5.24237,-1.149565 -1.4077,0.456632 -3.97549,1.118988 -4.64338,1.44908 0.96815,-0.114781 3.09516,-1.09029 3.431,-0.337466 -0.67858,0.439603 -2.62561,0.943225 -2.60514,1.162674 0.83903,-0.229942 3.15739,-1.095927 3.0504,-0.672076 -0.64878,0.441084 -3.09026,1.292088 -1.22126,0.620285 0.9892,-0.356349 1.27427,0.159306 0.20252,0.558714 0.34986,-0.06498 0.66941,-0.230573 1.01685,-0.304006"
         id="path26" />
      <path
         style="fill:none;stroke:#000000;stroke-width:1.05833;stroke-linecap:round;stroke-linejoin:round;stroke-dasharray:none;stroke-opacity:1"
         d="m 139.34839,-33.911564 c 0.72249,-0.397631 2.29314,-1.307401 2.61026,-1.111658 -0.5965,0.422097 -2.38611,1.286892 -2.05413,1.596703 1.12913,-0.426837 2.19921,-0.999682 3.34727,-1.378119 -0.86272,0.98963 -3.63714,2.361677 -3.6661,2.805657 1.79371,-0.759136 3.58382,-1.52749 5.3756,-2.291604 -1.83288,1.013309 -3.73119,1.90116 -5.57966,2.884833 1.76603,-0.978347 3.6939,-1.602376 5.55013,-2.379556 -1.60105,1.174837 -3.37124,2.086694 -5.04561,3.14776 1.65364,-0.831346 3.31782,-1.642545 4.95003,-2.515745 -1.37503,1.114371 -3.03135,1.834436 -4.34414,3.031481 1.17424,-0.817763 3.97957,-2.047565 4.36191,-2.149343 -1.01353,0.683615 -3.58294,2.329642 -3.59147,2.464545 1.39615,-0.976526 2.93747,-1.74576 4.55863,-2.270303 -0.85437,1.098333 -3.19823,2.614817 -3.72347,2.701085 0.84861,-0.814513 2.94793,-1.913781 3.50929,-1.764348 -0.56347,0.628108 -2.41785,1.796413 -2.36147,1.790214 0.50538,-0.36381 1.07847,-0.614183 1.62169,-0.913401"
         id="path27" />
      <path
         style="fill:none;stroke:#000000;stroke-width:1.05833;stroke-linecap:butt;stroke-linejoin:miter;stroke-dasharray:none;stroke-opacity:1"
         d="m 129.44744,-17.778551 c 2.40079,2.09194 6.55666,2.700034 9.80064,2.45597 4.64868,-0.545014 7.18556,-2.10593 8.58772,-5.829386"
         id="path28"
         sodipodi:nodetypes="ccc" />
      <path
         style="fill:none;stroke:#000000;stroke-width:1.05833;stroke-linecap:round;stroke-linejoin:round;stroke-dasharray:none;stroke-opacity:1"
         d="m 116.45324,-39.079929 c 0.41292,0.70818 0.95129,1.327772 1.47706,1.955465 0.35235,0.657622 1.16891,1.109211 1.19561,1.905767 0.20929,0.487726 0.61858,-0.820647 0.89734,-1.023749 0.33634,-0.832374 1.39686,-1.687966 0.9766,-2.626894 -0.71658,-0.894792 -1.7017,-1.52081 -2.59754,-2.221379 -0.68792,-0.581607 -1.76023,-0.729589 -2.18275,-1.590627 l 0.52788,4.133003 0.56224,-2.678906 c 0,0 0.23151,3.604948 0.23151,3.472656 0,-0.132292 0.69453,-2.910417 0.69453,-2.910417 l -0.23151,3.638021 1.95131,-2.480469 -1.25677,2.976563 2.08359,-2.083594"
         id="path29" />
      <path
         style="fill:none;stroke:#000000;stroke-width:1.05833;stroke-linecap:round;stroke-linejoin:round;stroke-dasharray:none;stroke-opacity:1"
         d="m 149.76109,-45.300624 c -0.0401,0.431077 -0.01,1.460862 -1.24392,3.730172 -0.58188,0.126154 -1.14116,-0.723689 -1.68599,-1.018983 -0.54988,-0.34428 -1.41323,-1.117165 -0.75657,-1.764082 0.40978,-0.924724 1.27495,-1.523206 2.1099,-2.033695 0.68346,-0.221502 1.12243,-0.935153 1.85132,-1.018123 l -0.57927,2.837721 -0.69453,-1.984375 0.42995,2.513542 -1.12448,-1.91823 0.95911,2.414323 -2.38125,-1.5875 2.01745,1.984375 -2.38125,-1.02526"
         id="path30"
         sodipodi:nodetypes="cccccc" />
      <path
         style="fill:none;stroke:#000000;stroke-width:1.05833;stroke-linecap:round;stroke-linejoin:round;stroke-dasharray:none;stroke-opacity:1"
         d="m 128.21026,-33.026906 c -2.47911,0.202782 -4.65387,1.020015 -4.87542,4.271692 0.75684,1.665568 4.78896,2.40905 6.9273,2.464024 2.26501,-0.168358 4.37778,-2.318839 3.6486,-4.656106 -0.41287,-1.96861 -2.8431,-2.233699 -4.53669,-2.327842"
         id="path31"
         sodipodi:nodetypes="ccccc" />
      <path
         style="fill:none;stroke:#000000;stroke-width:1.05833;stroke-linecap:round;stroke-linejoin:round;stroke-dasharray:none;stroke-opacity:1"
         d="m 139.88627,-35.338116 c -1.53785,1.411821 -2.84575,3.114198 -2.32131,5.284211 0.8064,1.683047 2.94553,1.821544 4.50193,1.902941 2.46503,-0.147479 6.46883,-3.41065 6.2609,-5.958955 -3.09065,-3.239384 -4.78458,-2.575251 -7.08529,-1.742682"
         id="path33"
         sodipodi:nodetypes="ccccc" />
    </g>
  </g>
</svg>
