<?xml version="1.0" encoding="UTF-8" standalone="no"?>
<!-- Created with Inkscape (http://www.inkscape.org/) -->

<svg
   width="150"
   height="150"
   viewBox="0 0 150 150"
   version="1.1"
   id="svg1"
   inkscape:version="1.3.2 (091e20e, 2023-11-25, custom)"
   sodipodi:docname="nathan.svg"
   xmlns:inkscape="http://www.inkscape.org/namespaces/inkscape"
   xmlns:sodipodi="http://sodipodi.sourceforge.net/DTD/sodipodi-0.dtd"
   xmlns="http://www.w3.org/2000/svg"
   xmlns:svg="http://www.w3.org/2000/svg">
  <sodipodi:namedview
     id="namedview1"
     pagecolor="#ffffff"
     bordercolor="#000000"
     borderopacity="0.25"
     inkscape:showpageshadow="2"
     inkscape:pageopacity="0.0"
     inkscape:pagecheckerboard="0"
     inkscape:deskcolor="#d1d1d1"
     inkscape:document-units="px"
     inkscape:zoom="2.8284271"
     inkscape:cx="19.622213"
     inkscape:cy="85.029591"
     inkscape:window-width="2560"
     inkscape:window-height="1369"
     inkscape:window-x="-8"
     inkscape:window-y="-8"
     inkscape:window-maximized="1"
     inkscape:current-layer="layer1" />
  <defs
     id="defs1" />
  <g
     inkscape:label="Layer 1"
     inkscape:groupmode="layer"
     id="layer1">
    <path
       style="fill:none;stroke:#000000;stroke-width:3.3;stroke-linecap:round;stroke-linejoin:round;stroke-dasharray:none;stroke-opacity:1"
       d="m 115.59117,41.339235 c 5.29755,13.301275 -1.77335,28.613784 5.86011,41.278395 3.14206,13.526129 1.40479,26.21149 -4.37685,39.01129 -5.33126,11.19934 -7.41198,22.38631 -20.003032,19.91223 C 82.536284,142.0933 60.651247,132.2545 52.741858,120.22257 48.037838,114.8703 46.09064,108.6503 43.553372,95.601052"
       id="path3"
       sodipodi:nodetypes="cccccc" />
    <path
       style="fill:none;stroke:#000000;stroke-width:3.3;stroke-linecap:round;stroke-linejoin:round;stroke-dasharray:none;stroke-opacity:1"
       d="m 50.735252,71.801864 c -1.536674,-3.385708 -5.725273,-8.188878 -9.826654,-8.188878 -1.975669,0 -4.510272,1.688302 -5.568438,3.275551 -0.191523,0.287286 -0.149913,0.686597 -0.327556,0.982666 -0.158887,0.264813 -0.46219,0.413961 -0.65511,0.65511 -0.785256,0.981571 -1.700912,3.200544 -1.96533,4.258218 -0.331965,1.327856 -0.164196,9.702879 0.327554,10.809319 0.59537,1.339582 1.382065,2.569706 1.965332,3.930662 0.565372,1.319205 0.654393,3.384258 1.96533,4.258217 0.406282,0.270855 0.964947,0.309837 1.310221,0.655111 0.172637,0.172636 0.132239,0.508622 0.327555,0.65511 0.727142,0.545357 4.272659,1.723274 5.240882,1.96533 0.990471,0.247618 3.325243,0.233244 4.258218,0 0.820596,-0.205149 1.174029,-1.310221 1.96533,-1.310221"
       id="path4" />
    <path
       style="fill:none;stroke:#000000;stroke-width:3.3;stroke-linecap:round;stroke-linejoin:round;stroke-dasharray:none;stroke-opacity:1"
       d="m 39.925931,98.661387 c -1.506441,0 -2.863722,-0.845389 -4.258216,-1.31022 -0.310746,-0.103585 -0.67192,0.103585 -0.982665,0 -0.287301,-0.09576 -1.790982,-0.808316 -1.965332,-0.982666 -3.093978,-3.093979 -3.762282,-8.418439 -4.913327,-12.447095 -0.379415,-1.327955 -0.797294,-2.648349 -1.310221,-3.930662 -0.584143,-1.460357 -1.64447,-2.32636 -1.96533,-3.930662 -0.14558,-0.7279 0.03639,-0.03639 0.327555,-0.327556 0.244148,-0.244145 0.120391,-0.706446 0.327555,-0.982665 0.327555,-0.43674 1.007396,-0.528428 1.31022,-0.982665 0.0826,-0.123894 0.07942,-3.612971 0,-3.930662 -0.05921,-0.236856 -0.268346,-0.418254 -0.327554,-0.65511 -0.254274,-1.017094 0.148266,-2.237682 0,-3.275552 -0.304461,-2.131227 -1.096999,-4.341663 -0.655111,-6.551103 0.221033,-1.105162 1.1676,-3.779755 1.637776,-4.585773 1.347866,-2.310627 2.979916,-4.178166 3.603107,-6.878657 0.173603,-0.752284 0.231791,-1.526794 0.327555,-2.292886 0.01355,-0.108342 0.107701,-0.309602 0,-0.327556 -2.671955,-0.445325 -11.163969,1.206786 -7.861324,-3.930662 0.769822,-1.1975 1.418881,-2.479385 2.292886,-3.603106 1.399064,-1.798796 3.320515,-2.99296 4.913327,-4.585772 0.820706,-0.820706 1.472181,-1.799736 2.292886,-2.620442 0.494357,-0.494355 1.267241,-0.717363 1.637776,-1.31022 1.280964,-2.049541 -0.813471,-1.01217 -1.31022,-1.310221 -0.337572,-0.202542 -0.376742,-0.704297 -0.65511,-0.982665 -0.386028,-0.386027 -0.992908,-0.538428 -1.310221,-0.982665 -1.371407,-1.91997 0.824332,-5.147614 2.620442,-5.895993 1.890851,-0.787854 8.330544,-1.046241 10.481764,-0.65511 0.545146,0.09911 2.948321,0.654136 2.620441,1.637775 -0.587537,1.76261 -3.940519,-2.912467 -4.258217,-3.275551 -2.49587,-2.852424 0.716313,1.043868 -2.292886,-1.96533 C 39.05495,14.591397 39.446005,14.51872 38.615711,13.169493 37.568689,11.468082 34.343657,7.2873372 36.65038,4.9806144 c 0.468404,-0.4684032 4.48694,0.6343048 4.585772,0.6551104 6.926362,1.4581812 13.723399,2.4609471 20.635975,4.2582169 0.552792,0.1437263 7.416373,2.4529693 8.516433,2.9479963 1.113207,0.500943 2.412368,2.500959 3.275553,1.637776 0.07821,-0.07821 -0.285534,-1.469684 -0.327556,-1.637776 -0.05922,-0.236856 -0.268336,-0.418254 -0.327555,-0.65511 -0.05297,-0.21185 0.09765,-0.459794 0,-0.655111 -0.138109,-0.276219 -0.540417,-0.368376 -0.65511,-0.65511 -0.390975,-0.9774361 -0.184575,-4.0736422 0.65511,-4.9133271 0.45907,-0.4590705 0.299609,0.3089219 0.327555,0.3275551 0.691874,0.4612491 1.570918,0.5701118 2.292886,0.9826655 2.271221,1.2978401 4.783067,1.8076919 7.206213,2.9479965 1.237869,0.582526 2.482329,1.180786 3.603107,1.965331 0.505994,0.354195 0.924382,0.827922 1.310221,1.310221 0.06821,0.08525 -0.09765,0.278725 0,0.327554 0.734133,0.367067 2.832091,0.263304 3.603106,0.327555 3.726541,0.310545 7.751958,0.913045 10.80932,3.275552 3.15477,2.437776 4.69587,3.715942 5.56843,7.206213 0.22883,0.915408 0.0987,2.360144 0.32756,3.275551 0.0265,0.105929 0.29299,0.103585 0.32756,0 0.27622,-0.828656 0,-1.74696 0,-2.62044 0,-0.356802 -0.0932,-10.902538 0.98266,-9.826655 1.49256,1.492556 1.60771,8.548058 1.31022,10.481765 -0.1344,0.873629 -1.69586,5.837908 -0.98266,6.551103 0.0772,0.0772 0.21921,0.01355 0.32755,0 0.7661,-0.09576 1.54803,-0.124415 2.29289,-0.327555 0.47108,-0.128478 0.84699,-0.500699 1.31022,-0.65511 0.54116,-0.18039 7.98338,-1.843272 8.51643,-1.310221 0.63289,0.632882 -1.04862,0.939066 -1.31022,0.982665 -0.20913,0.03486 -2.20546,0.240137 -2.62044,0.65511 -0.17264,0.172637 -0.15492,0.482474 -0.32755,0.655111 -0.67007,0.670063 -1.67464,1.140989 -2.29289,1.96533 -0.66233,0.883112 -1.36594,1.166142 -1.96533,1.965331 -3.15497,4.206625 -10.5199,7.694919 -15.395091,7.861324 -0.87348,0.109185 -1.793162,0.02672 -2.620441,0.327556 -1.116923,0.406153 -4.254324,4.909434 -5.240883,5.895992 -0.278368,0.278368 -0.704297,0.376741 -0.982665,0.65511 -0.07721,0.0772 0.04055,0.428931 0,0.327555 -0.875275,-2.188186 -0.968467,-4.38802 -2.620442,-6.223548 -0.46769,-0.519655 -1.118119,-0.84253 -1.637776,-1.31022 C 84.554679,43.4432 84.121511,42.767132 83.490767,42.321902 78.631136,38.891573 72.74397,36.912031 66.785454,37.408574 c -1.119299,0.09327 -1.309298,0.763783 -2.292886,1.310221 -0.513986,0.285548 -1.121591,0.373555 -1.637775,0.65511 -2.190841,1.195003 -1.666806,1.26503 -3.603107,2.620441 -0.521567,0.365096 -1.187595,0.532484 -1.637776,0.982665 -0.345274,0.345274 -0.384255,0.903939 -0.655111,1.310221 -0.171302,0.256956 -0.469816,0.408052 -0.65511,0.655111 -1.667329,2.223106 -1.31022,9.419757 -1.31022,12.11954 0,0.764295 0.341803,1.60928 0,2.292886 -0.18558,0.371159 -3.542356,-0.649587 -3.603107,-0.65511 -0.757176,-0.06883 -5.043484,-0.197399 -5.568437,0.327555 -0.154412,0.154411 0.06905,0.447946 0,0.65511 -0.12449,0.37347 -0.530621,0.609196 -0.655111,0.982666 -0.292364,0.877094 0,2.326066 0,3.275551"
       id="path5" />
    <path
       style="fill:#ffffff;stroke:#000000;stroke-width:3.3;stroke-linecap:round;stroke-linejoin:round;stroke-dasharray:none;stroke-opacity:1;fill-opacity:1"
       d="M 90.96652,68.982943 C 87.959363,58.080417 69.081513,59.0918 67.496252,70.449845 c -2.328949,9.945925 6.806745,21.027325 17.263126,18.928408 7.096513,-0.52247 9.716747,-7.888735 8.722438,-14.026263 -0.11139,-2.296214 -0.565057,-4.872804 -2.515296,-6.369047 z"
       id="path6" />
    <path
       style="fill:none;stroke:#000000;stroke-width:3.3;stroke-linecap:round;stroke-linejoin:round;stroke-dasharray:none;stroke-opacity:1"
       d="m 104.68328,101.11324 c -2.93893,-0.53738 -6.028229,0.0542 -8.867698,-1.129924 -2.990889,-0.623827 -6.064593,1.143344 -7.951419,3.375964 -1.94993,2.00433 -0.360551,4.21365 2.182221,3.55132 2.304232,0.46313 4.442237,-0.40142 6.730751,-0.51345 2.638898,-0.37364 5.278775,-0.54125 7.945185,-0.44472 2.47655,-0.8825 4.65294,0.73535 7.00245,1.1368 2.21191,0.62637 4.23035,1.93895 6.64718,1.34097 2.00291,-0.9792 -0.0273,-4.58497 -1.25417,-5.93015 -2.86471,-2.50567 -6.90035,-1.72776 -10.36741,-2.33264 -0.74932,-0.0444 -1.77523,0.15215 -2.06709,0.94583 z"
       id="path9" />
    <path
       style="fill:#ffffff;stroke:#000000;stroke-width:3.3;stroke-linecap:round;stroke-linejoin:round;stroke-dasharray:none;stroke-opacity:1;fill-opacity:1"
       d="m 106.58244,79.595704 c -0.59613,-2.923769 -1.9051,-5.689298 -2.27416,-8.641819 -0.2306,-1.84479 -0.53861,-3.878168 -0.30323,-5.761213 0.0127,-0.101582 0.23449,-1.204104 0.30323,-1.364498 0.15297,-0.356949 0.50816,-0.668148 0.60644,-1.061276 0.14781,-0.591249 0.14907,-0.400059 0.45483,-0.909665 0.0822,-0.137037 0.0557,-0.326983 0.15161,-0.454832 0.0678,-0.0904 0.22332,-0.0717 0.30322,-0.151611 1.27806,-1.278058 -0.53163,0.323423 0.45484,-0.909665 0.11382,-0.142285 0.32598,-0.174378 0.45483,-0.303222 0.12884,-0.128845 0.17438,-0.325988 0.30322,-0.454833 0.0335,-0.03351 1.1808,-0.747359 1.21289,-0.758054 0.24542,-0.08181 0.67276,0.03948 0.90966,0 0.41107,-0.06851 0.80608,-0.212819 1.21289,-0.303222 1.29055,-0.286788 3.14929,-0.382998 4.39672,0.151611 0.19789,0.08481 1.33205,0.635352 1.5161,0.758054 0.3568,0.237867 0.56072,0.660419 0.90967,0.909666 0.18391,0.131364 0.43845,0.15203 0.60644,0.303221 1.75876,1.58288 0.36078,0.47476 1.21289,1.66772 0.12462,0.174473 0.3359,0.276432 0.45483,0.454832 0.21349,0.320238 0.25085,0.734901 0.45483,1.061276 0.13393,0.214277 0.34183,0.380436 0.45484,0.606444 0.18637,0.372742 0.17143,0.817534 0.30322,1.212887 0.26787,0.803609 0.43903,1.43708 0.60644,2.274163 0.0722,0.36077 0.26991,0.694872 0.30322,1.061276 0.0942,1.036291 0,2.139165 0,3.183828 0,0.454833 0.0564,0.913178 0,1.364498 -0.10557,0.844595 -0.75254,3.706194 -1.21288,4.396715 -0.11894,0.1784 -0.33972,0.273943 -0.45484,0.454833 -1.24656,2.493126 -0.0287,0.376958 -1.06127,1.667719 -0.38536,0.481704 -0.65144,1.055045 -1.06128,1.516109 -0.28489,0.320504 -0.64639,0.571175 -0.90966,0.909665 -0.0981,0.126148 -0.0493,0.332062 -0.15161,0.454833 -0.16177,0.194117 -0.41233,0.293067 -0.60645,0.454832 -0.21962,0.183016 -0.38321,0.427856 -0.60644,0.606444 -0.33799,0.270394 -0.71228,0.373779 -1.06128,0.606443 -0.24154,0.16103 -0.28493,0.374455 -0.60644,0.454833 -0.48031,0.120078 -0.39873,0.175489 -0.90967,0.303221 -0.12582,0.03146 -0.33998,-0.05742 -0.45483,0 -0.44616,0.223081 0.23535,0.151611 -0.45483,0.151611"
       id="path13" />
    <path
       style="fill:none;stroke:#000000;stroke-width:3.3;stroke-linecap:round;stroke-linejoin:round;stroke-dasharray:none;stroke-opacity:1"
       d="m 65.192672,92.027795 c -0.303221,0 -0.622004,-0.09589 -0.909665,0 -0.203407,0.0678 -0.303222,0.303222 -0.454833,0.454833 -0.631592,0.631593 -0.788243,1.365165 -0.606443,2.274163 0.08213,0.410657 0.240449,0.249138 0.454833,0.606444 0.374705,0.624509 -0.17003,0.369817 0.606443,0.758054 0.09409,0.04704 0.539003,0 0.606444,0 0.202147,0 0.438246,0.112131 0.606443,0 0.462714,-0.308476 0.753116,-1.839083 0.606443,-2.425774 -0.185365,-0.741464 -0.431098,-1.02963 -0.909665,-1.66772 z"
       id="path16" />
    <path
       style="fill:none;stroke:#000000;stroke-width:3.3;stroke-linecap:round;stroke-linejoin:round;stroke-dasharray:none;stroke-opacity:1"
       d="m 90.280243,105.05512 c 1.647394,-1.4285 3.49661,-2.6301 4.982616,-4.23962 -0.402203,0.93745 -0.803783,2.1581 -0.210118,3.09468 0.946699,0.74615 1.951369,-0.49306 2.893687,-0.67644 0.784511,-0.25592 2.989742,-1.22651 2.776632,0.28653 -0.15652,0.45951 -0.843222,1.15749 -0.0732,0.53978 0.90941,-0.57159 2.23599,-0.74181 3.08243,0.0342 1.45529,-0.62085 2.42125,-2.08983 3.96059,-2.54757 1.33528,0.0314 0.53405,1.66761 0.45235,2.44759 0.23312,1.00681 0.99232,-1.14352 1.63995,-1.17465 1.22158,-0.35641 0.54562,2.176 1.30386,1.95598 0.62569,-0.50349 2.0628,-1.49453 2.36028,-0.18156 0.0697,0.54935 0.035,0.93603 0.2773,0.2011 0.42683,-0.67902 0.80723,-2.455 1.7433,-2.09632 0.41133,1.19191 -0.0177,2.52729 0.43258,3.72079"
       id="path18" />
    <path
       style="fill:none;stroke:#000000;stroke-width:3.3;stroke-linecap:round;stroke-linejoin:round;stroke-dasharray:none;stroke-opacity:1"
       d="m 37.447884,96.2729 c -0.263824,0 -0.661939,0.08257 -0.909665,0 -1.063582,-0.354527 -1.389126,-1.716976 -1.819331,-2.577385 -0.911532,-1.823065 -1.309385,-2.784316 -1.516108,-4.851548 -0.0629,-0.628962 -1.171599,2.467063 -1.516109,2.122552 -0.06588,-0.06588 -1.273038,-4.417105 -1.364498,-4.851547 -0.09428,-0.447816 -0.07208,-0.91383 -0.151611,-1.364498 -0.389021,-2.204453 -0.303221,-0.245765 -0.303221,-2.274163 0,-0.151611 0,-0.303222 0,-0.454833 0,-0.05054 0.05054,-0.151611 0,-0.151611 -0.09063,0 -0.628499,1.579501 -0.758055,1.061277 -0.111276,-0.445107 0.04023,-1.225134 0,-1.66772 -0.165311,-1.818394 -0.151611,-3.623031 -0.151611,-5.457991 0,-0.758054 0,-1.516109 0,-2.274163 0,-0.101074 0.07147,-0.231752 0,-0.303222 -0.293686,-0.293686 -1.620259,3.136368 -1.667719,3.183828 -0.03573,0.03573 -0.01598,-0.103671 0,-0.151611 0.219411,-0.658244 0.151611,0.104157 0.151611,-0.758054 0.122593,-0.612968 0.303221,-1.212887 0.454832,-1.81933 0.05054,-0.303222 0.09819,-0.606939 0.151611,-0.909665 0.09819,-0.556423 0.129759,-1.129985 0.303222,-1.66772 2.279433,-7.066242 0.599817,-0.579938 1.516109,-4.245104 0.101073,-0.404296 0.212821,-0.806073 0.303221,-1.212887 0.01096,-0.04933 0.05054,-0.151611 0,-0.151611 -0.05103,0 -2.253834,1.917792 -2.728995,2.274163 -0.180807,0.135605 -0.446632,0.463034 -0.606444,0.303222 -0.117929,-0.11793 0.976296,-1.56858 1.061276,-1.66772 1.522213,-1.775915 3.089372,-3.622607 4.699937,-5.30638 0.741333,-0.77503 2.054485,-1.432565 1.66772,-1.819331 -0.212481,-0.212483 -0.138671,0.143011 -0.151611,0.151611 -0.584168,0.389445 -1.202976,0.725083 -1.819331,1.061276 -0.892852,0.487011 -1.807374,0.934408 -2.728995,1.364498 -0.23549,0.109895 -1.658232,0.748566 -1.212887,0.303222 0.03573,-0.03573 0.106411,0.0226 0.151611,0 0.683024,-0.341512 1.426807,-0.713403 2.122552,-1.061276 1.815729,-0.907865 -0.607883,-0.04505 2.274163,-0.909665 0.273602,-0.109441 0.476407,-0.368173 0.758054,-0.454833 0.389425,-0.119821 0.813357,-0.0717 1.212887,-0.151611 1.902104,-0.380421 3.647892,-0.856645 5.609602,-0.909665 1.212444,-0.03277 2.425774,0 3.638661,0 0.202148,0 0.404296,0 0.606443,0 0.05054,0 0.151611,-0.05054 0.151611,0 0,0.457632 -0.908116,0.117801 -1.364498,0.151611 -0.962869,0.07132 -1.92335,0.177267 -2.880606,0.303222 -0.643581,0.08468 -5.591254,0.994644 -6.367656,0.606443 -0.305334,-0.152667 2.44444,-1.543226 2.728995,-1.667719 1.985751,-0.868766 4.007393,-1.457039 6.064435,-2.122553 2.350149,-0.760342 4.762497,-1.81933 7.277321,-1.81933 0.05054,0 -0.10107,0 -0.15161,0 -0.808592,0 -1.617578,-0.02526 -2.425774,0 -3.923925,0.122623 -7.851112,0.793908 -11.674037,1.66772 -2.790123,0.637742 -1.477186,0.592834 -3.790272,0.758054 -0.201634,0.0144 -0.404295,0 -0.606443,0 -0.05054,0 -0.151611,0.05054 -0.151611,0 0,-0.231517 0.324692,-0.374743 0.454833,-0.454833 0.620735,-0.38199 1.167423,-0.886933 1.81933,-1.212887 0.671971,-0.335985 1.403661,-0.539819 2.122552,-0.758054 4.180157,-1.268976 8.373876,-2.444463 12.735313,-2.880606 0.854864,-0.08549 1.729946,0.141239 2.577385,0 0.292676,-0.04878 -0.640854,-0.280822 -0.909666,-0.303222 -1.593592,-0.132801 -3.253955,-0.200021 -4.851547,-0.151611 -4.212602,0.127655 -8.528441,1.330352 -12.735313,0.909665 -0.100572,-0.01006 -0.07147,-0.231752 0,-0.303222 0.07147,-0.07147 0.231752,0.07147 0.303222,0 0.03573,-0.03573 0,-0.10107 0,-0.15161 0.101074,-0.101074 0.202148,-0.202148 0.303221,-0.303222 1.406011,-0.93734 3.848507,-1.510085 5.306381,-1.819331 3.15425,-0.669084 6.489125,-0.852584 9.703095,-0.758054 1.43335,0.04216 2.815426,0.151611 4.245104,0.151611 0.101074,0 -0.205161,0.02451 -0.303221,0 -1.412155,-0.353039 0.572559,0.101002 -0.909666,-0.454833 -0.241281,-0.09048 -0.508059,-0.08911 -0.758054,-0.15161 -2.232882,-0.558224 -2.854817,-0.606444 -5.30638,-0.606444 -2.021478,0 -4.043588,-0.05052 -6.064435,0 -0.695021,0.01738 -5.997216,0.522051 -6.519267,0 -0.555443,-0.555443 3.568282,-1.320548 3.941882,-1.364498 3.247574,-0.382067 6.100488,-0.606443 9.399874,-0.606443 1.656138,0 3.226933,-0.0217 4.851548,0.303222 0.110809,0.02216 -0.197413,-0.111931 -0.303222,-0.151611 -0.344489,-0.129184 -0.706784,-0.204752 -1.061276,-0.303222 -1.157426,-0.321507 -2.33029,-0.585772 -3.48705,-0.909665 -0.661919,-0.185338 -1.301545,-0.450251 -1.970941,-0.606444 -5.125036,-1.195841 -10.568708,-0.758054 -15.76753,-0.758054 -0.08295,0 -3.432846,0.443832 -3.032217,-0.758054 0.05776,-0.173271 3.126139,-0.151611 3.487049,-0.151611 3.585475,0 7.18034,-0.07467 10.764372,0 1.112719,0.02318 2.222649,0.132091 3.335439,0.151611 1.768521,0.03103 3.538023,-0.0393 5.30638,0 0.507765,0.01128 1.010305,0.105631 1.516109,0.151611 0.05033,0.0046 0.187341,0.03573 0.151611,0 -0.848173,-0.848173 -2.822528,-0.901369 -3.941883,-1.061277 -1.521573,-0.217367 -3.016332,-0.633838 -4.548326,-0.758054 -2.115609,-0.171536 -4.245104,0 -6.367656,0 -6.984852,0 -0.371891,-0.201999 -6.064435,0.454833 -0.451834,0.05213 -0.909665,0 -1.364497,0 -0.252685,0 -0.50537,0 -0.758055,0 -0.05054,0 -0.187341,0.03574 -0.151611,0 0.8359,-0.835895 2.313179,-0.617591 3.335439,-0.909665 0.37007,-0.105735 0.691207,-0.349099 1.061276,-0.454833 0.343601,-0.09817 0.718997,-0.04893 1.061277,-0.151611 1.722783,-0.516833 -1.432498,-0.20056 1.364497,-0.454833 1.524512,-0.138591 5.777245,-0.05957 6.670878,0 1.019783,0.06799 2.018063,0.328064 3.032218,0.454833 5.005194,0.625649 1.644594,-0.156989 8.186986,1.364498 0.466975,0.108599 0.905282,0.317068 1.364498,0.454832 0.04841,0.01452 0.151611,0.05054 0.151611,0 0,-0.05815 -2.308037,-1.381434 -2.577385,-1.516108 -1.351461,-0.675731 -2.930299,-1.452727 -4.396715,-1.819331 -3.448532,-0.862133 -7.440514,-0.991048 -10.915982,-1.212887 -0.707879,-0.04518 -1.555096,0.273982 -2.122552,-0.15161 -0.08086,-0.06065 0,-0.202148 0,-0.303222 0,-0.05054 -0.04903,-0.139351 0,-0.151611 0.492726,-0.123181 1.019492,-0.04519 1.516109,-0.151611 1.059135,-0.226957 2.095494,-0.528703 3.183828,-0.606443 1.179326,-0.08424 2.319262,0.08673 3.48705,0.151611 0.504591,0.02803 1.013015,-0.04791 1.516108,0 2.379476,0.226616 4.672382,1.023238 6.9741,1.667719 1.514155,0.423963 2.570228,0.830281 3.941883,1.516109 0.364427,0.182213 0.735322,0.361978 1.061276,0.606443 0.127851,0.09589 0.311422,0.454833 0.151611,0.454833 -0.300896,0 -0.831779,-1.059889 -1.061277,-1.212887 -0.398914,-0.265943 -0.929189,-0.253921 -1.364497,-0.454833 -0.923428,-0.426197 -1.828073,-0.892585 -2.728996,-1.364498 -0.560932,-0.293821 -1.111813,-0.606443 -1.667719,-0.909665 -0.50537,-0.353758 -0.97369,-0.767465 -1.516109,-1.061276 -1.672787,-0.906093 -2.86491,-1.107017 -4.699937,-1.667719 -1.666547,-0.509223 -3.365466,-0.920584 -5.003159,-1.516109 -0.977638,-0.355505 -2.01827,-1.013946 -1.667719,-1.364498 0.204926,-0.204926 0.680524,0.416073 0.758054,0.454833 0.471388,0.235691 0.758339,0.07585 1.212887,0.151611 1.406047,0.234341 -0.209398,0.02815 1.212887,0.454832 0.925042,0.277513 1.940664,0.320555 2.880607,0.454833 0.965977,0.137997 1.910393,0.34184 2.880606,0.606443 2.395177,0.653231 4.688128,1.620467 6.9741,2.577385 1.567064,0.655981 3.180463,1.211204 4.699937,1.970941 0.475723,0.237862 2.421566,1.76922 2.880606,2.274163 0.183068,0.201375 0.495661,0.565616 0.303222,0.758055 -0.08687,0.08687 -0.878075,-0.574854 -0.909665,-0.606444 -0.0799,-0.07991 -0.06337,-0.232632 -0.151611,-0.303222 -0.176483,-0.141186 -0.429961,-0.162035 -0.606444,-0.303221 -0.08824,-0.07059 -0.07927,-0.216412 -0.151611,-0.303222 -0.600349,-0.72042 -1.202902,-1.285882 -1.667719,-2.122552 -1.030444,-1.8548 -1.028812,-1.602761 -2.577385,-2.728996 -3.064224,-2.228526 3.232748,1.318091 -5.003158,-2.880606 -6.706979,-3.419244 -1.049749,-0.510482 -11.067594,-4.851548 -0.968452,-0.419663 -2.78805,-1.279887 -2.425773,-2.728995 0.0208,-0.08318 0.641485,0.419869 1.061276,0.606443 0.819159,0.364071 1.702757,0.454334 2.577384,0.606444 1.941302,0.337617 2.9207,0.323268 4.699937,1.212886 0.202148,0.101074 0.432819,0.158535 0.606444,0.303222 0.173624,0.144687 0.463033,0.446632 0.303221,0.606444 -0.297121,0.297111 -0.205271,-0.205282 -0.303221,-0.303222 -0.07147,-0.07147 -0.205162,0.02451 -0.303222,0 -0.919966,-0.229992 -1.101631,-0.493008 -2.122552,-0.606444 -1.739761,-0.193306 -4.045844,0 -5.761213,0 -0.517609,0 -1.83348,0.267848 -2.122552,-0.454832 -0.131383,-0.328457 0,-0.707518 0,-1.061276 0,-0.537419 0.05745,-1.024567 0.303222,-1.516109 1.267714,-2.535429 5.027954,-0.911392 6.974099,-0.303222 0.703775,0.21993 0.73511,0.09983 1.516109,0.454833 1.086675,0.493943 2.399005,1.525016 3.335439,2.274163 0.223235,0.178588 0.380783,0.43093 0.606444,0.606443 1.584535,1.232417 3.542682,2.001632 5.154769,3.183829 0.433213,0.317689 0.788835,0.731457 1.212887,1.061276 0.486937,0.378729 1.014131,0.70272 1.516109,1.061276 0.559341,0.399529 1.087806,0.843851 1.667719,1.212887 0.534229,0.339963 1.096005,0.63742 1.66772,0.909665 0.491426,0.234013 1.059462,0.31024 1.516108,0.606443 1.424617,0.924076 2.831327,1.896267 4.093494,3.032218 0.356362,0.320725 0.669242,0.935677 0.454832,1.364497 -0.104826,0.209652 -1.917781,-0.446963 -2.122552,-1.061276 -0.03196,-0.09589 0.0452,-0.212821 0,-0.303221 -0.02342,-0.04684 -0.400602,0.02712 -0.454832,0 -0.191775,-0.09589 -0.284284,-0.324891 -0.454833,-0.454833 -0.948723,-0.722837 -1.926435,-1.406923 -2.880607,-2.122552 -4.192455,-3.144342 -1.066617,-0.784292 -5.457991,-4.548326 -3.242887,-2.779617 -1.650135,-1.063567 -4.548326,-4.093493 -0.42064,-0.439761 -0.926512,-0.827546 -1.212887,-1.364498 -0.142692,-0.267549 -0.04985,-0.610569 0,-0.909665 0.01858,-0.111467 0.206322,0.09347 0.303222,0.15161 0.948459,0.569076 0.450617,0.04031 1.66772,0.909666 0.379141,0.270815 0.677332,0.645703 1.061276,0.909665 0.761105,0.523259 2.457767,1.260417 3.183828,1.667719 0.321303,0.180244 5.24111,2.927991 6.367656,3.941883 0.09275,0.08348 1.63713,1.997442 1.66772,2.425774 0.03097,0.43363 -0.45065,1.36868 -0.758055,1.061276 -1.409441,-1.409442 -3.409633,-6.470878 -2.122552,-8.186987 0.187487,-0.249982 0.974432,0.469847 1.819331,1.061276 1.616217,1.131352 3.414809,2.443074 5.154769,3.48705 0.446162,0.267697 0.935741,0.463284 1.364498,0.758054 1.248926,0.858637 0.664204,1.061276 2.122552,1.061276 0.208369,0 -0.101071,-0.404295 -0.151611,-0.606443 -0.0625,-0.249995 -0.07923,-0.510741 -0.151611,-0.758054 -2.695067,-9.208147 -0.593701,-2.041615 -2.880606,-8.793431 -0.681894,-2.01321 -1.473446,-3.997916 -1.970941,-6.064434 -0.165597,-0.687865 -0.08776,-1.420499 0,-2.122552 0.06544,-0.523547 0.20218,-1.052913 0.454832,-1.516109 0.536499,-0.983581 4.348169,1.702413 5.15477,2.728996 0.09062,0.115336 0.790713,1.331838 0.454832,1.667719 -0.03574,0.03573 -0.101251,-0.0042 -0.151611,0 -0.55627,0.04636 -1.10952,0.151611 -1.667719,0.151611 -2.88105,0 -5.762898,-0.04088 -8.641819,-0.151611 -1.065291,-0.04097 -2.127353,-0.160455 -3.183829,-0.303222 -0.815271,-0.110171 -1.61561,-0.311862 -2.425773,-0.454832 -0.04977,-0.0088 -0.193661,-0.02803 -0.151611,0 0.884035,0.589357 1.943125,0.864508 2.880606,1.364498 2.986344,1.592716 9.976567,4.909617 13.038535,8.035375 0.0601,0.06135 4.006418,3.445052 3.335439,5.457992 -0.153807,0.461419 -0.662611,0.299843 -0.909666,0.15161 -3.760864,-2.256518 -5.968829,-3.300947 -8.79343,-6.367656 -0.808035,-0.877296 -1.564495,-1.826499 -2.122552,-2.880606 -0.367079,-0.693371 -0.416163,-1.513043 -0.606443,-2.274163 -0.01226,-0.04903 -0.04794,-0.167591 0,-0.151611 0.593003,0.197668 1.128523,1.227696 1.364497,1.516108 0.590086,0.721217 1.195952,1.42991 1.819331,2.122553 1.196229,1.329143 2.425774,2.627921 3.638661,3.941882 0.752147,0.814826 3.922385,3.829265 3.183828,5.30638 -0.0047,0.0095 -0.436013,0.01359 -0.454833,0 -0.87678,-0.63323 -1.702706,-1.334811 -2.577385,-1.970941 -3.768581,-2.740786 -5.380326,-3.35588 -10.61276,-6.064434 -5.843117,-3.024673 -5.397134,-2.004524 -11.522426,-6.9741 -1.006284,-0.81642 -1.886199,-2.78924 -1.364498,-4.093494 0.137485,-0.343711 0.553024,-0.03844 0.758055,0 0.604278,0.113302 1.221685,0.158963 1.81933,0.303222 0.870516,0.210125 1.724827,0.484018 2.577385,0.758054 3.07005,0.986802 5.096377,1.234097 7.428932,2.880607 0.311032,0.219552 1.212887,0.740027 1.212887,1.364498 0,0.159811 -0.304642,-0.097 -0.454833,-0.151611 -0.495855,-0.180311 -1.025024,-0.261907 -1.516108,-0.454833 -0.926528,-0.363993 -1.825802,-0.794334 -2.728996,-1.212887 -2.751992,-1.275313 -5.791265,-2.573937 -8.035376,-4.699937 -0.291911,-0.276547 -1.412489,-1.571737 -1.061276,-2.2741626 0.04308,-0.086158 4.546404,0.9731256 5.003159,1.0612756 6.896548,1.330913 10.635662,1.86581 17.283639,4.548326 0.651075,0.262715 1.250167,0.650214 1.81933,1.061276 0.347636,0.251071 0.630593,0.584081 0.909665,0.909666 0.03289,0.03837 0.04645,0.171521 0,0.151611 -1.260736,-0.540316 -2.422167,-1.514306 -3.638661,-2.122553 -0.386203,-0.193101 -0.817301,-0.281763 -1.212887,-0.454832 -0.414118,-0.181177 -0.784066,-0.463504 -1.212887,-0.606444 -1.570471,-0.52349 -3.230746,-0.724486 -4.851547,-1.061276 -2.930622,-0.60896 -5.887579,-1.101414 -8.79343,-1.81933 C 46.657028,11.061496 42.065297,9.4016177 40.631712,8.7934302 40.007535,8.5286279 39.376532,8.2598653 38.812382,7.883765 38.567194,7.7203068 38.06287,7.1257107 38.357549,7.1257107 c 0.02363,0 1.373677,0.8384491 1.516109,0.9096652 0.668448,0.3342243 1.337513,0.5065745 1.970941,0.9096652 0.273004,0.1737299 0.483647,0.4349387 0.758054,0.6064434 0.839988,0.5249925 3.116552,0.9255515 4.093494,1.2128865 2.406014,0.707652 4.605042,1.93931 6.974099,2.728996 1.244688,0.414896 2.537213,0.672396 3.790272,1.061276 5.13116,1.59243 -3.666763,-0.738153 5.15477,1.66772 1.539231,0.41979 6.238032,1.256861 6.974099,2.728995 0.0452,0.0904 -0.05607,0.219122 0,0.303222 0.06268,0.09402 0.240542,0.05759 0.303222,0.151611 0.04306,0.06459 0.150411,2.543655 0.151611,2.577385 0.03746,1.011308 0.101071,2.021478 0.151611,3.032217 0.101074,0.505369 0.260422,1.002511 0.303222,1.516108 0.165147,1.981774 -0.0437,3.615464 0.454832,5.609603 0.03724,0.148971 0.652223,1.76641 0.758054,1.81933 0.259175,0.129587 1.104598,0 1.364498,0 1.517222,0 3.023614,-0.151611 4.548326,-0.151611 0.303222,0 0.630961,-0.119445 0.909665,0 0.152711,0.06545 0.171131,0.601932 0.151611,0.758054 -0.120318,0.962544 -0.304207,2.42873 -0.606443,3.335439 -0.05762,0.172863 -0.235552,0.285652 -0.303222,0.454833 -0.03754,0.09385 0.101074,0.303222 0,0.303222 -0.204711,0 -0.151611,-0.492907 -0.151611,-1.061276 0,-1.13848 0.103851,-7.325082 -0.151611,-7.580544 -0.285138,-0.285138 -2.832133,4.293578 -3.335439,3.790272 -0.14294,-0.14294 0.0183,-0.405126 0,-0.606443 -0.03689,-0.405769 -0.130191,-0.806009 -0.151611,-1.212887 -0.06109,-1.160744 0,-2.3247 0,-3.48705 0,-0.404296 0,-0.808592 0,-1.212887 0,-0.05054 0.02803,-0.193661 0,-0.151611 -0.670279,1.005418 -1.151238,2.168328 -1.81933,3.183828 -0.939878,1.428615 -1.907222,2.839105 -2.880606,4.245104 -0.391262,0.565156 -0.831599,1.095788 -1.212887,1.66772 -0.02803,0.04205 0,0.202151 0,0.151611 0,-0.911755 0.252561,-1.817152 0.303221,-2.728996 0.03084,-0.55505 -0.206458,-1.151573 0,-1.667719 0.08394,-0.209844 0.202148,-0.404296 0.303222,-0.606444 0.606444,-2.122552 1.212887,-4.245104 1.819331,-6.367656 1.926561,-6.996463 0.213388,-1.301643 1.970941,-7.277322 0.225467,-0.76659 0.193034,-1.709142 0.758054,-2.274163 0.294722,-0.294678 0.231812,0.802312 0.303222,1.212887 0.132458,0.761635 0.334263,1.510556 0.454832,2.274163 0.503943,3.191648 0.544393,6.327264 0.454833,9.551485 -0.0225,0.809856 -0.04682,1.62241 -0.151611,2.425774 -0.04978,0.381645 -0.416532,1.444244 -0.454832,1.061276 -0.136089,-1.360886 0.139147,-2.407364 0.303221,-3.790272 0.263669,-2.22235 0.498721,-4.448018 0.758055,-6.670878 0.09443,-0.809394 0.174477,-1.621124 0.303221,-2.425774 0.07361,-0.460076 0.211842,-0.907618 0.303222,-1.364498 0.0099,-0.04956 0,-0.202151 0,-0.151611 0,1.617183 0.06875,3.235828 0,4.851548 -0.03891,0.914436 -0.229252,1.816726 -0.303222,2.728996 -0.07771,0.958386 -0.06456,1.923024 -0.15161,2.880606 -0.06471,0.711765 -0.241312,1.410539 -0.303222,2.122552 -0.0394,0.453123 0,0.909665 0,1.364498 0,0.05054 -0.01598,0.199551 0,0.151611 0.318423,-0.955269 0.556104,-1.937778 0.909665,-2.880607 0.03657,-0.09753 2.721696,-6.499757 2.728996,-6.519267 0.336682,-0.897819 0.637261,-1.809631 0.909665,-2.728995 0.132364,-0.446731 0.155882,-0.92248 0.303221,-1.364498 0.01598,-0.04794 0.147011,-0.05033 0.151611,0 0.267234,2.939574 9.99e-4,5.856491 0.151611,8.79343 0.04945,0.96424 0.199447,1.920693 0.303222,2.880607 0.09837,0.909961 0.118656,1.832534 0.303222,2.728995 0.170831,0.829751 0.505369,1.617183 0.758054,2.425774 0.101074,0.65698 0.184315,1.316953 0.303222,1.970941 0.08335,0.458412 0.211851,0.907618 0.303221,1.364498 0.0099,0.04956 -0.03574,0.187341 0,0.151611 1.154001,-1.154001 1.939542,-6.094949 1.970942,-6.216046 1.145712,-4.419176 1.993809,-8.611325 2.425774,-13.190145 0.06171,-0.654076 0,-1.313961 0,-1.970941 0,-0.05054 0.02803,-0.193661 0,-0.151611 -0.42477,0.637154 -0.433181,1.181634 -0.606444,1.970941 -0.287495,1.309702 -1.279616,5.536991 -1.516109,7.428933 -0.186052,1.488416 -0.420391,4.424407 -0.606443,5.912823 -0.05054,0.404296 -0.111071,0.807467 -0.151611,1.212887 -0.01006,0.100573 -0.07147,0.231752 0,0.303222 0.182211,0.182214 0.151611,-0.500365 0.151611,-0.758054 0,-0.50537 0,-1.010739 0,-1.516109 0,-2.627922 0.191774,-5.26285 0,-7.883765 -0.07823,-1.069192 -0.295804,-2.123638 -0.454833,-3.183828 -0.334285,-2.228566 -0.665503,-4.481345 -1.212887,-6.670878 -0.01226,-0.04903 0,0.101071 0,0.151611 0,0.303221 -0.0216,0.607214 0,0.909665 0.04315,0.604038 0.253346,2.040087 0.454833,2.577385 0.143062,0.381499 0.42423,0.696848 0.606444,1.061276 0.87583,1.75166 2.594491,5.052131 2.274163,6.974099 -0.01858,0.111467 -0.115871,-0.196016 -0.151611,-0.303221 -0.162977,-0.488931 -0.129882,-1.030756 -0.303222,-1.516109 -0.15203,-0.425683 -0.4204,-0.800933 -0.606444,-1.212887 -1.215097,-2.690572 -2.045161,-5.66162 -4.245104,-7.732154 -0.495107,-0.465983 -0.97602,-0.951489 -1.516108,-1.364498 -1.113334,-0.851372 -1.935505,-0.907421 -2.880607,-2.122552 -0.155133,-0.199457 -0.374932,-0.366726 -0.454832,-0.606443 -0.07991,-0.239718 0,-0.50537 0,-0.7580547 0,-0.050537 -0.05054,-0.1516109 0,-0.1516109 0.190487,0 2.043042,1.8285726 2.728995,2.1225526 0.822906,0.352673 3.388217,0.914708 3.790272,1.81933 0.149424,0.336205 0.179478,0.714795 0.303221,1.061276 0.129449,0.362456 0.361483,0.68789 0.454833,1.061276 0.430801,1.723205 0.206793,6.957321 -0.151611,8.641819 -0.382158,1.796142 -1.272306,5.484637 -1.970941,7.580544 -0.222592,0.667776 -0.510899,1.31186 -0.758054,1.970941 -0.05611,0.149636 -0.202151,0.606443 -0.151611,0.454833 1.06695,-3.200852 2.233851,-6.362679 3.335439,-9.551485 0.469636,-1.359474 0.909665,-2.728996 1.364498,-4.093493 0.303221,-0.909666 0.641181,-1.80848 0.909665,-2.728996 0.08607,-0.295108 0.108141,-0.60535 0.151611,-0.909665 0.0071,-0.05003 0.01598,-0.199551 0,-0.151611 -0.461333,1.383888 -0.33793,3.145485 -0.454833,4.548326 -0.316813,3.801751 -0.322291,2.846269 -0.909665,7.125711 -0.05642,0.411056 -1.105176,7.03791 -0.758054,7.732154 0.03196,0.06392 0.11615,-0.08956 0.15161,-0.151611 0.168198,-0.294345 0.289456,-0.613727 0.454833,-0.909665 0.795036,-1.422696 1.672928,-2.79964 2.425774,-4.245105 1.27645,-2.450784 4.258278,-10.342473 4.548326,-11.067593 0.345063,-0.862657 0.727745,-1.710203 1.061276,-2.577384 0.124404,-0.323451 0.509843,-1.66772 0.606443,-1.66772 0.204246,0 -0.327937,4.769517 -0.454832,5.30638 -0.942352,3.986874 -2.0351,8.257003 -3.48705,12.12887 -0.06165,0.164403 -1.675059,3.782932 -1.212887,4.245104 0.252685,0.252685 0.708788,-0.09286 1.061276,-0.151611 1.478266,-0.246378 2.955224,-0.61701 4.093493,-1.66772 1.630079,-1.504688 2.638713,-4.475899 3.335439,-6.064434 2.010198,-4.58325 3.01355,-9.543285 4.093494,-14.403032 0.06578,-0.296002 0.02518,0.60749 0,0.909665 -0.03384,0.406034 -0.08463,0.810988 -0.151611,1.212887 -0.708629,4.251772 -0.31517,2.123613 -1.212887,5.457991 -0.514787,1.912066 -1.129386,3.806269 -1.970941,5.609602 -0.411086,0.880898 -0.929763,1.707914 -1.364498,2.577385 -0.475155,0.950309 -0.860777,1.945124 -1.364498,2.880606 -0.912353,1.69437 -1.916417,3.337741 -2.880606,5.003159 -0.169858,0.29339 -0.793845,0.909665 -0.454833,0.909665 0.308266,0 1.342118,-1.934581 1.364498,-1.970941 1.098748,-1.785466 1.508505,-3.738055 1.970941,-5.761213 0.246922,-1.080282 1.068704,-4.751935 1.212887,-5.761213 0.157883,-1.105178 0.192136,-2.224582 0.303222,-3.335439 0.0759,-0.758974 0.442768,-4.102947 0.606443,-5.003159 0.06582,-0.36198 0.213992,-0.704346 0.303222,-1.061276 0.01226,-0.04903 0,-0.202151 0,-0.151611 0,1.689951 0.176587,3.477189 0,5.15477 -0.04878,0.463367 -0.204242,0.909204 -0.303222,1.364497 -1.064544,4.896905 -3.031505,8.175989 -5.609602,12.583702 -0.03044,0.05204 -2.98143,4.447503 -2.577384,4.851548 0.328279,0.328279 0.348766,-0.52375 0.909665,-1.516109 0.469191,-0.830107 1.045441,-1.596502 1.516108,-2.425774 0.591368,-1.041932 1.095632,-2.131186 1.66772,-3.183828 1.726381,-3.176542 2.360757,-3.888353 3.638661,-7.12571 0.311046,-0.787985 0.468545,-1.629625 0.758054,-2.425774 0.115855,-0.318602 0.321289,-0.598064 0.454833,-0.909665 0.01991,-0.04645 0.01096,-0.200941 0,-0.151611 -0.771763,3.472929 -0.88763,7.081957 -1.061276,10.61276 -0.03972,0.807615 0,1.617183 0,2.425774 0,0.454833 0,0.909665 0,1.364498 0,0.05054 -0.03032,0.192041 0,0.151611 0.993613,-1.324818 1.898333,-3.276121 2.577384,-4.699937 2.851101,-5.978117 2.702031,-5.840998 4.699941,-10.46115 0.35031,-0.810091 0.75137,-1.599379 1.06127,-2.425774 0.14633,-0.390204 0.21282,-0.806072 0.30322,-1.212887 0.011,-0.04933 0,-0.20215 0,-0.15161 0,1.756065 -0.16492,3.554657 -0.30322,5.30638 -0.1553,1.967161 -0.44576,5.368882 -0.75805,7.277321 -0.24969,1.52584 -0.63577,3.026648 -0.90967,4.548326 -0.18106,1.005882 -0.25439,2.030019 -0.45483,3.032218 -0.10348,0.517375 -0.31601,1.007078 -0.45483,1.516108 -0.0133,0.04876 -0.048,0.167591 0,0.151611 1.92472,-0.641573 2.61743,-3.886377 3.33544,-5.609602 0.23486,-0.563668 0.52319,-1.104051 0.75805,-1.667719 0.0194,-0.04665 0.0357,-0.115871 0,-0.151611 -0.20215,-0.202148 -0.41819,0.391297 -0.60644,0.606443 -0.89544,1.023362 -1.84112,2.002284 -2.729,3.032218 -0.46898,0.544021 -0.72206,1.346501 -1.3645,1.667719 -0.0452,0.0226 -0.028,-0.109561 0,-0.151611 0.1795,-0.269247 0.41509,-0.497106 0.60645,-0.758054 0.3648,-0.497457 0.70272,-1.014131 1.06127,-1.516109 1.2401,-1.73613 2.4002,-3.455367 3.18383,-5.457991 0.23294,-0.595295 0.41845,-1.208351 0.60645,-1.81933 0.0149,-0.0483 0.0338,-0.189171 0,-0.151611 -1.12921,1.254675 -1.62507,2.176474 -2.88061,3.335439 -1.60712,1.483498 -3.522776,2.61225 -5.00316,4.245104 -1.307348,1.220191 -2.587712,2.619067 -3.790272,3.941883 -0.409352,0.450287 -0.827532,0.893509 -1.212886,1.364497 -0.07156,0.08746 -0.0717,0.223312 -0.151611,0.303222 -0.03574,0.03574 -0.01388,-0.103021 0,-0.151611 0.08781,-0.307326 0.202147,-0.606443 0.303221,-0.909665 0.423195,-1.269583 1.061471,-2.388406 1.516109,-3.638661 0.08806,-0.242174 0.366021,-0.900994 0.151611,-0.758054 -0.367928,0.245285 -0.797387,0.948997 -1.061276,1.212887 -2.752211,2.752211 1.197128,-2.232716 -3.48705,3.941882 -0.119403,0.157395 -1.142545,1.678647 -1.364498,2.122553 -0.0226,0.0452 -0.03573,0.18735 0,0.15161 0.307404,-0.307404 0.45065,-0.753871 0.758054,-1.061276 0.48314,-0.483139 0.652441,-0.437799 1.212887,-0.758054 0.158206,-0.0904 0.27963,-0.253162 0.454833,-0.303222 0.442999,-0.126571 1.374693,0 1.81933,0 1.959445,0 3.957986,0.130323 5.912824,0 2.714044,-0.180936 6.110154,-1.305267 8.338594,-2.728995 0.81363,-0.519819 1.38083,-1.352839 2.12256,-1.970942 0.4739,-0.394918 1.01073,-0.707517 1.5161,-1.061276 -0.005,-0.474834 0.10402,-2.752793 -0.45483,-3.032217 -0.13701,-0.06851 -0.39174,0.130581 -0.45483,0.151611 -0.34904,0.116345 -0.7322,0.138685 -1.06128,0.303222 -0.38884,0.194419 -0.7273,0.479743 -1.06127,0.758054 -1.04167,0.868054 -1.92553,1.92413 -3.03222,2.728996 -1.93638,1.408275 0.17562,-0.218154 -1.97094,1.212887 -0.26925,0.179497 -0.48505,0.432713 -0.75806,0.606443 -0.28601,0.182007 -0.63193,0.260422 -0.90966,0.454833 -0.2342,0.163941 -0.38078,0.43093 -0.60644,0.606443 -0.954938,0.742726 -2.09916,1.428605 -3.183832,1.970941 -3.558824,1.779412 -0.142974,0.06665 -2.728996,1.061276 -0.947478,0.364415 -1.816731,0.938775 -2.728996,1.364498 -0.691858,0.322868 -1.858364,0.629864 -2.577384,1.061276 -0.165402,0.09924 -1.192626,0.929927 -1.364498,0.758055 -0.352768,-0.352769 0.467983,-3.760495 0.606443,-4.245105 0.510716,-1.787506 1.559298,-3.180486 2.425774,-4.851547 0.229114,-0.441864 0.383851,-0.919314 0.606444,-1.364498 0.498672,-0.997346 1.105012,-1.83418 1.516108,-2.880607 0.350614,-0.892471 0.584877,-1.826805 0.909665,-2.728995 0.541937,-1.50538 0.404375,-0.589939 0.758055,-2.122552 0.104768,-0.453996 0.211846,-0.907618 0.303222,-1.364498 0.03964,-0.198222 -0.06392,-0.414669 0,-0.606444 0.0226,-0.0678 0.119648,-0.08769 0.15161,-0.15161 0.09599,-0.191973 0.01481,-1.752673 0,-1.819331 -0.118075,-0.531338 -0.420432,-1.004579 -0.606443,-1.516108 -0.03938,-0.1083 -0.97133,-2.63905 -1.061276,-2.728996 -0.173727,-0.173727 -0.364711,0.726539 -0.454833,1.061276 -0.270852,1.006023 -0.462078,2.033297 -0.758054,3.032217 -0.45425,1.533095 -1.245717,3.000982 -1.66772,4.548326 -0.234921,0.861378 -0.195681,1.755861 -0.606443,2.577385 -0.592666,1.185332 -1.947982,2.554426 -2.880606,3.48705 -0.151611,0.151611 -0.287407,0.320892 -0.454833,0.454833 -0.176483,0.141186 -0.470839,0.122415 -0.606444,0.303221 -0.09589,0.12785 -0.03861,0.341829 -0.15161,0.454833 -0.113004,0.113004 -0.330041,0.05178 -0.454833,0.151611 -0.545171,0.436136 -1.198874,1.800646 -1.66772,2.425774 -0.228815,0.305086 -0.185928,0.792372 -0.454832,1.061276 -0.03574,0.03574 0,-0.101074 0,-0.151611 0,-0.454833 0,-0.909665 0,-1.364498 0,-1.66772 0,-3.335439 0,-5.003159 0,-2.31358 -0.110079,-4.662441 0,-6.974099 0.19744,-4.146242 0.08437,0.772579 0.303222,-2.728996 0.02522,-0.403508 -0.0288,-0.809619 0,-1.212887 0.124686,-1.745615 0.418731,-3.458156 0.758054,-5.154769 0.140815,-0.704077 0,-1.561522 0,-2.274163 0,-0.05054 -0.02803,0.109561 0,0.151611 0.07929,0.118933 0.191604,0.213927 0.303222,0.303221 0.416987,0.33359 0.724238,0.639979 1.061276,1.061276 0.246571,0.308214 0.54886,0.574955 0.758054,0.909665 0.144239,0.230783 0.181513,0.514637 0.303222,0.758055 0.316763,0.633527 0.852248,1.39392 1.212887,1.970941 0.292732,0.468371 0.460299,-0.107877 0.606443,1.061276 0.01982,0.158578 -0.08866,0.307942 -0.151611,0.454833 -0.405955,0.947229 -1.569192,1.637386 -2.577384,1.061276 -1.356871,-0.775355 -2.52617,-1.75377 -4.093494,-2.122552 -2.287965,-0.538345 -4.794567,-0.303222 -7.12571,-0.303222 -0.916936,0 -1.965152,0.114432 -2.880607,0 -0.255699,-0.03196 -0.575841,-0.333825 -0.758054,-0.151611 -0.03573,0.03573 0.02803,0.109562 0,0.151611 -0.07929,0.118933 -0.22968,0.180652 -0.303222,0.303222 -0.164445,0.274075 -0.160282,0.623785 -0.303222,0.909665 -0.0226,0.0452 0.03574,-0.115876 0,-0.151611 -0.859973,-0.859973 -4.03376,0.250386 -4.851547,0.454833 -1.564723,0.39118 -3.270128,0.942321 -2.728996,1.212887 0.180806,0.0904 0.418195,0.07366 0.606443,0 0.989426,-0.387167 1.918576,-0.913546 2.880607,-1.364498 1.785588,-0.836995 2.144298,-0.901059 3.790272,-1.970942 4.767538,-3.0989 -3.812515,2.000145 3.335439,-1.970941 0.220886,-0.122714 0.373196,-0.357646 0.606443,-0.454832 0.384682,-0.160284 0.825955,-0.148449 1.212887,-0.303222 0.132717,-0.05309 0.171839,-0.246915 0.303222,-0.303222 0.416932,-0.178685 1.50505,-0.184786 1.516108,-0.151611 0.194551,0.583651 0.126676,2.307095 0.151611,2.880607 0.104007,2.392161 0.187729,3.708376 -0.454832,6.064434 -0.126148,0.462543 -0.160488,0.986055 -0.454833,1.364498 -0.440972,0.566964 -1.025284,1.04328 -1.667719,1.364498 -0.316412,0.158206 -0.70769,0.01105 -1.061277,0 -1.263817,-0.03949 -2.535601,0.0052 -3.790271,-0.151611 -1.480598,-0.185075 -6.619632,-2.144479 -6.9741,-2.274163 -1.384006,-0.506343 -2.819593,-1.076222 -4.093493,-1.81933 -0.41182,-0.240228 -0.827311,-0.477635 -1.212887,-0.758055 -0.173402,-0.12611 -0.268673,-0.348455 -0.454833,-0.454832 -0.180915,-0.10338 -0.408767,-0.08572 -0.606443,-0.151611 -0.741005,-0.247002 -1.396741,-0.770952 -2.122552,-1.061276 -0.887346,-0.354938 -1.942581,-0.733785 -2.880607,-0.909665 -0.449793,-0.08434 -0.915753,-0.06186 -1.364498,-0.151611 -0.313417,-0.06268 -0.598538,-0.230016 -0.909665,-0.303222 -0.55,-0.129412 -1.125658,-0.143792 -1.667719,-0.303222 -0.745157,-0.219163 -1.867457,-0.80618 -2.425774,-1.364497 -0.07991,-0.07991 -0.05054,-0.252685 -0.151611,-0.303222 -0.186371,-0.09319 -0.254991,0.425528 -0.151611,0.606443 0.141836,0.248214 0.396378,0.412537 0.606443,0.606444 2.322198,2.143567 1.899583,1.608603 5.912824,3.941882 1.154265,0.671084 2.331558,1.301973 3.48705,1.970942 0.45029,0.260694 0.94825,0.445868 1.364498,0.758054 0.886689,0.665017 1.574307,1.564607 2.425774,2.274163 0.758054,0.606443 1.516108,1.212887 2.274163,1.81933 0.303221,0.151611 0.643093,0.245384 0.909665,0.454833 0.449586,0.353246 0.808591,0.808591 1.212887,1.212887 1.067934,1.067934 2.150455,2.446701 3.335439,3.335439 1.046346,0.784759 0.201638,-0.203167 0.606443,0.606443 0.193683,0.387366 0.606444,0.473285 0.606444,0.454833 0,-0.05054 -0.115876,0.03574 -0.151611,0 -0.178675,-0.178675 -0.244586,-0.466279 -0.454833,-0.606444 -0.783637,-0.522425 -1.859617,-0.382384 -2.728995,-0.454832 -0.912102,-0.07601 -1.826186,-0.152754 -2.728996,-0.303222 -0.678024,-0.113004 -1.298822,-0.462418 -1.970941,-0.606443 -1.633104,-0.349951 -3.236476,-0.758648 -4.851548,-1.212887 -1.216236,-0.342067 -2.426575,-0.704781 -3.638661,-1.061276 -0.506181,-0.148877 -0.996158,-0.365186 -1.516108,-0.454833 -1.303447,-0.224732 -2.634585,-0.25371 -3.941883,-0.454833 -0.607659,-0.09349 -1.206645,-0.252164 -1.81933,-0.303221 -0.553986,-0.04617 -1.114096,0.05033 -1.66772,0 -1.318377,-0.119853 -2.649943,-0.23951 -3.941882,-0.454833 -0.299096,-0.04985 -0.609491,0.04288 -0.909665,0 -0.353759,-0.05054 -0.714596,-0.06494 -1.061276,-0.151611 -0.10963,-0.02741 -0.261253,-0.256532 -0.303222,-0.151611 -1.066372,2.665931 2.474622,4.698354 4.093493,6.216046 0.703837,0.659847 0.847473,1.091082 1.66772,1.364498 0.14383,0.04794 0.454832,0.15161 0.454832,0 0,-0.441615 -1.256452,-0.564415 -1.970941,-0.606444 -2.993371,-0.176081 -7.020376,-0.426563 -10.006317,0 -0.150087,0.02144 -0.311002,-0.04794 -0.454833,0 -0.09589,0.03196 0.07147,0.231752 0,0.303222 -0.313688,0.313688 0.01226,-0.479357 -0.303221,0.151611 -0.0226,0.0452 0.03573,0.115876 0,0.151611 -0.03573,0.03574 -0.151611,-0.05054 -0.151611,0 0,0.05054 0.101761,-0.0083 0.151611,0 0.557332,0.09289 1.104918,0.253195 1.667719,0.303221 1.714467,0.152397 3.436098,0.209476 5.15477,0.303222 3.500525,0.190938 6.896111,0.207919 10.309538,1.061276 0.571938,0.142985 2.867492,0.476341 3.33544,1.061276 0.141186,0.176483 0.143409,0.446632 0.303221,0.606444 0.07881,0.07881 1.357424,0.644708 1.516109,0.758054 0.174473,0.124623 0.263058,0.358945 0.454833,0.454833 0.08303,0.04152 1.168453,0.258788 1.364497,0.454832 0.416096,0.416096 0.05814,3.079333 -0.151611,3.638661 -0.43681,1.164828 -0.863425,2.415545 -1.212886,3.638661 -0.191683,0.670888 -0.11154,1.300053 -0.303222,1.970941 -0.03105,0.108656 -0.133033,0.191755 -0.151611,0.303222 -0.03323,0.199397 0.02859,0.406327 0,0.606443 -0.07969,0.557834 -1.184466,4.024009 -1.516109,4.245104 -0.316932,0.211289 -3.089251,0.268631 -3.48705,0.303222 -1.579179,0.13732 -2.951753,0.483291 -4.396715,1.061276 -0.230663,0.09227 -0.330354,0.440473 -0.454832,0.606444 -0.185183,0.24691 -0.46723,0.479626 -0.606444,0.758054 -0.130408,0.260816 0.205075,1.159423 0,1.364498 -0.194004,0.194004 -1.505074,0.471762 -1.81933,0.606443 -0.167481,0.07178 -0.27963,0.253164 -0.454833,0.303222 -0.19437,0.05553 -0.407046,-0.03323 -0.606443,0 -0.445134,0.07419 -0.9534,0.452282 -1.364498,0.606443 -0.195102,0.07316 -0.420072,0.05843 -0.606444,0.151611 -0.304739,0.15237 -1.763559,1.256881 -1.970941,1.516109 -0.09983,0.124792 -0.05572,0.326983 -0.151611,0.454833 -0.0678,0.0904 -0.223315,0.07171 -0.303221,0.15161 -0.113004,0.113005 -0.05572,0.326984 -0.151611,0.454833 -0.310219,0.413624 -0.463798,0.771503 -0.758055,1.212887 -0.07929,0.118933 -0.229679,0.180652 -0.303221,0.303222 -0.739661,1.232768 0.310405,-0.162386 -0.303222,0.758054 -0.07929,0.118933 -0.239297,0.175372 -0.303222,0.303222 -0.165295,0.33059 -0.103187,0.727885 -0.303221,1.061276 -0.442816,0.738025 -0.741838,1.567589 -1.212887,2.274163 -0.275727,0.41359 -0.550732,0.909665 -0.454833,0.909665 0.419004,0 -0.586532,-5.897459 -0.606443,-6.216045 -0.02522,-0.403509 0.0288,-0.809619 0,-1.212887 -0.06216,-0.870186 -0.331457,-1.71375 -0.454833,-2.577385 -0.09262,-0.648336 -0.04359,-1.322838 -0.151611,-1.970941 -0.135785,-0.814708 -0.447172,-2.240492 -0.303222,-3.032218 0.174861,-0.961734 0.680382,-1.991851 1.061276,-2.880606 0.07514,-0.175318 1.24762,-2.880607 1.364498,-2.880607 0.05054,0 0,0.101074 0,0.151611 0,0.252685 0.018,0.506012 0,0.758055 -0.114925,1.608945 -0.51996,3.141118 -0.909665,4.699936 -0.145991,0.583963 -0.606443,1.810985 -0.606443,2.425774"
       id="path22" />
    <path
       style="fill:none;stroke:#000000;stroke-width:3.3;stroke-linecap:round;stroke-linejoin:round;stroke-dasharray:none;stroke-opacity:1"
       d="m 95.84223,88.780243 c 2.61602,-4.045522 4.7123,-5.688844 8.82602,-8.143795 2.19809,-0.05027 5.94195,2.561802 6.63677,4.051168 0.73829,2.252509 0.48937,3.088118 0.99348,5.385343"
       id="path8"
       sodipodi:nodetypes="cccc" />
    <path
       style="fill:#ffffff;fill-opacity:1;stroke:#000000;stroke-width:3.3;stroke-linecap:round;stroke-linejoin:round;stroke-dasharray:none;stroke-opacity:1"
       d="m 87.024637,70.953885 c -0.642039,-3.524993 -5.645731,-3.227062 -7.823035,-1.316889 -3.972012,3.267713 -4.381988,9.059818 -3.864075,13.799946 1.576245,4.569965 7.65346,6.081637 11.848249,4.778154 4.575088,-2.018364 3.227335,-7.462985 3.657898,-11.426139 0.145912,-2.490837 -1.020684,-5.512706 -3.819037,-5.835072 z"
       id="path25" />
    <path
       style="fill:#ffffff;fill-opacity:1;stroke:#000000;stroke-width:3.3;stroke-linecap:round;stroke-linejoin:round;stroke-dasharray:none;stroke-opacity:1"
       d="m 80.960202,71.105496 c -0.940719,1.062177 -2.237898,2.491752 -1.970941,4.093493 0.05589,0.335353 0.637293,0.788904 0.758054,0.909666 0.279098,0.279097 0.652826,0.676364 1.061276,0.758054 0.215535,0.04311 0.973087,0.199571 1.212887,0.151611 2.037941,-0.407588 3.289189,-4.069503 2.274163,-5.761213 -0.07354,-0.12257 -0.229679,-0.180652 -0.303221,-0.303222 -0.05257,-0.08763 -0.093,-0.536371 -0.303222,-0.606443 -0.106234,-0.03541 -2.425774,-0.263276 -2.425774,-0.151611 0,0.05054 0.101074,0 0.151611,0 0.151611,0 0.303222,0 0.454832,0 0.454833,0 0.909666,0 1.364498,0 0.353759,0 0.712331,-0.05816 1.061276,0 0.53753,0.08959 0.954357,0.602059 1.364498,0.909665 0.464926,0.348695 1.061276,0.974811 1.061276,1.66772 0,0.759858 -1.28875,2.577499 -1.667719,3.335439 -0.07147,0.14294 -0.06939,0.317795 -0.151611,0.454832 -0.07354,0.12257 -0.223933,0.184289 -0.303222,0.303222 -0.02803,0.04205 -0.05054,0.151611 0,0.151611 0.05054,0 -0.01598,-0.103668 0,-0.151611 0.03574,-0.107205 0.08102,-0.21498 0.151611,-0.303222 0.267882,-0.334852 0.671798,-0.552865 0.909665,-0.909665 0.08865,-0.132972 0.06939,-0.317795 0.151611,-0.454833 -0.374116,-0.458999 0.412391,-0.26078 0.454833,-0.303221 0.03574,-0.03574 0,-0.202148 0,-0.151611 0,1.399069 0.245783,2.674896 -0.758055,3.790271 -0.286865,0.31874 -0.541955,0.689039 -0.909665,0.909666 -0.17334,0.104004 -0.404296,0 -0.606443,0 -0.252685,0 -0.50537,0 -0.758055,0 -1.078615,0 -2.288552,0.162455 -3.335439,-0.151611 -0.664498,-0.19935 -0.502984,-0.327298 -1.061276,-0.606444 -0.424366,-0.212183 -0.92304,-0.20511 -1.061276,-0.758054 -0.05765,-0.230607 -0.382478,-1.436853 -0.151611,-1.66772 0.389626,-0.389625 0.514548,0.90046 0.606444,1.061276 0.125366,0.219392 0.329466,0.387052 0.454832,0.606444 0.07929,0.138756 0.03861,0.341828 0.151611,0.454833 0.231517,0.231516 1.027141,0.15161 1.212887,0.15161 0.548266,0 1.275579,0.108751 1.81933,0 0.266865,-0.05337 0.494031,-0.237215 0.758055,-0.303221 0.808735,-0.202184 1.432916,-0.392439 2.122552,-0.909666 0.858681,-0.64401 1.244454,-1.866681 1.81933,-2.728995 0.02803,-0.04205 0.01226,0.102583 0,0.151611 -0.398929,1.595716 -0.168782,0.551159 -0.758054,2.122552 -0.577082,1.538884 -1.045543,2.713263 -2.274163,3.941882 -0.151611,0.151611 -0.268672,0.348456 -0.454833,0.454833 -1.910647,1.091799 -7.007292,-1.864186 -8.945041,-2.122552 -0.150281,-0.02004 -0.078,0.324827 0,0.454832 0.23384,0.389734 1.576531,0.589864 1.66772,0.606444 2.073553,0.37701 2.373947,0.304875 4.548326,0.454833 1.894296,0.130641 3.721356,0.23603 5.609602,0 0.15044,-0.01881 0.319228,0.0678 0.454832,0 0.101074,-0.05054 0.08381,-0.212819 0.151611,-0.303222 0.277525,-0.370033 0.420935,-0.263365 0.606444,-0.758055 0.341524,-0.91073 0.350145,-1.938418 0.454832,-2.880606 0.04602,-0.414189 0.244286,-0.800337 0.303222,-1.212887 0.04704,-0.329317 0,-0.725082 0,-1.061276 0,-0.02633 0,0.731725 0,0.758054 0,0.303222 0,0.606444 0,0.909666 0,1.636125 -0.274559,2.546309 -0.758054,4.093493 -0.10974,0.351167 -0.108228,0.749285 -0.303222,1.061276 -0.322528,0.516046 -0.748332,0.971413 -1.212887,1.364498 -1.295711,1.09637 -5.56969,0.494732 -6.9741,0.303222 -0.304585,-0.04154 -0.625907,-0.03338 -0.909665,-0.151611 -0.336394,-0.140165 -0.593254,-0.425637 -0.909665,-0.606444 -0.04388,-0.02507 -0.17038,-0.04692 -0.151611,0 0.109441,0.273602 0.213423,0.589067 0.454833,0.758055 0.828724,0.580106 4.582886,0.561953 5.761213,0.454832 0.301674,-0.02742 1.351903,-0.395122 1.516108,-0.454832 0.511529,-0.186011 1.054544,-0.317966 1.516109,-0.606444 0.43754,-0.273463 0.348542,-0.606443 0.909665,-0.606443 0.05054,0 0,0.101074 0,0.15161 0,0.151611 0.0678,0.319228 0,0.454833 -0.585254,1.170507 -1.858958,2.088527 -3.032217,2.577385 -1.084694,0.451955 -2.334486,0.56596 -3.48705,0.758054 -0.303222,0.05054 -0.627116,0.03052 -0.909665,0.151611 -0.103868,0.04451 -0.151611,0.190218 -0.151611,0.303222 0,0.706331 1.850498,0.766298 2.122552,0.758054 1.880846,-0.057 4.89233,-0.09411 6.670878,-1.364498 0.174473,-0.124623 0.290118,-0.31757 0.454833,-0.454832 0.417603,-0.348003 0.454744,-0.151348 0.606443,-0.606444 0.310236,-0.930706 0.03357,-0.302124 0.151611,-1.364498 0.04602,-0.414189 0.257201,-0.798697 0.303222,-1.212887 0.181021,-1.629189 -0.03622,-3.401142 -0.303222,-5.003158 -0.08164,-0.489845 -0.08065,-1.748366 -0.454833,-2.122552 -0.03574,-0.03574 0.01877,0.104688 0,0.151611 -0.184852,0.462132 -0.383851,0.919313 -0.606443,1.364497 -0.23269,0.46538 -0.535317,0.894275 -0.758054,1.364498 -0.621009,1.311019 -0.848602,2.389982 -1.364498,3.790272 -0.204492,0.555048 -0.386759,1.118507 -0.606444,1.667719 -0.06767,0.169181 -0.235549,0.285652 -0.303221,0.454833 -0.05631,0.140767 0.107205,0.347628 0,0.454833 -0.202148,0.202147 -0.151611,-0.252685 -0.151611,0.15161"
       id="path32" />
    <path
       style="fill:#ffffff;fill-opacity:1;stroke:#000000;stroke-width:3.3;stroke-linecap:round;stroke-linejoin:round;stroke-dasharray:none;stroke-opacity:1"
       d="m 105.52116,71.560329 c -0.42444,-2.010547 -0.28532,-4.698964 1.54277,-5.969524 2.15997,-0.853184 4.59961,-0.519439 6.85698,-0.311052 2.39418,0.348879 3.35205,2.885261 4.53696,4.666698 1.52095,2.674752 2.19891,5.995845 0.85988,8.891199"
       id="path34" />
    <path
       style="fill:#ffffff;fill-opacity:1;stroke:#000000;stroke-width:3.3;stroke-linecap:round;stroke-linejoin:round;stroke-dasharray:none;stroke-opacity:1"
       d="m 107.34049,69.589387 c -0.002,0.725067 -0.11232,1.946598 0.60645,2.425774 0.18805,0.125367 0.38718,0.248407 0.60644,0.303222 0.24352,0.06088 2.15498,0.09026 2.42577,0 0.24056,-0.08019 0.53421,-0.305601 0.75806,-0.454833 0.13297,-0.08865 0.34183,-0.03861 0.45483,-0.151611 0.16992,-0.169923 0.87651,-1.080282 0.90967,-1.212886 0.0649,-0.259676 0.0968,-1.983712 0,-2.274163 -0.0452,-0.135605 -0.25802,-0.167617 -0.30323,-0.303222 -0.032,-0.09589 0.032,-0.207335 0,-0.303222 -0.058,-0.174153 -0.36196,-0.210349 -0.45483,-0.303222 -0.0799,-0.07991 -0.0612,-0.235419 -0.15161,-0.303221 -0.21772,-0.16329 -0.52469,-0.163202 -0.75805,-0.303222 -0.98221,-0.589323 -1.86077,-0.963655 -3.03222,-1.061276 -0.24561,-0.02047 -1.28041,-0.08409 -1.3645,0 -0.0357,0.03574 0,0.101074 0,0.151611 0,0.574665 2.48841,0.259644 2.88061,0.303221 0.20709,0.02301 0.40091,0.117356 0.60644,0.151611 0.14439,0.02407 0.66781,-0.0361 0.75806,0 0.13271,0.05309 0.1705,0.250135 0.30322,0.303222 0.3275,0.131003 0.86702,0.06515 1.21288,0.151611 0.18632,0.04658 0.19113,0.3801 0.30323,0.454832 0.0841,0.05607 0.21912,-0.05607 0.30322,0 0.18805,0.125367 0.14341,0.446632 0.30322,0.606444 0.0799,0.07991 0.23542,0.06121 0.30322,0.151611 0.37369,0.498257 0.6103,1.9555 0.45483,2.577385 -0.18303,0.73212 -0.072,-0.0075 -0.30322,0.454832 -0.37364,0.747287 0.1245,0.185506 -0.45483,0.909665 -0.60013,0.750165 0.0299,-0.181565 -0.75806,0.606444 -0.0799,0.07991 -0.0717,0.223316 -0.15161,0.303222 -0.15981,0.159811 -0.42563,0.167616 -0.60644,0.303221 -0.51602,0.387015 -0.98913,0.661114 -1.66772,0.758055 -0.30017,0.04288 -0.6155,-0.07354 -0.90966,0 -0.87766,0.219413 0.39853,0.15161 -0.75806,0.15161 -0.40443,0 -0.97813,0.09659 -1.3645,0 -0.21247,-0.05312 -0.19099,-0.15161 -0.45483,-0.15161 -0.0505,0 -0.12901,-0.0452 -0.15161,0 -0.26806,0.536112 0.82852,0.732192 1.06128,0.758054 0.85387,0.09488 1.72579,0.113546 2.57738,0 0.40387,-0.05385 0.67474,-0.477599 1.06128,-0.606444 0.24446,-0.08149 0.52257,-0.04695 0.75805,-0.15161 0.23091,-0.102625 0.39944,-0.309928 0.60644,-0.454833 0.29856,-0.208985 0.63541,-0.366467 0.90967,-0.606443 0.22743,-0.198999 0.21966,-0.44966 0.45483,-0.606444 0.094,-0.06268 0.22332,-0.0717 0.30322,-0.151611 0.17051,-0.170504 0.18106,-0.909665 0.45484,-0.909665 0.30239,0 -1.30806,2.23159 -1.51611,2.425774 -0.58187,0.543077 -2.55842,2.113071 -3.48705,2.577385 -0.0904,0.0452 -0.21282,-0.0452 -0.30322,0 -0.0452,0.0226 0.0357,0.115875 0,0.15161 -0.0809,0.08094 -0.98319,0.303222 -0.60645,0.303222 0.4043,0 0.8106,0.04023 1.21289,0 0.25641,-0.02564 0.50537,-0.101074 0.75805,-0.151611 0.85453,-0.170905 1.58965,-0.38901 0.60645,0.758055 -0.11859,0.138347 -0.36109,0.146975 -0.45483,0.303221 -0.078,0.130006 0.0368,0.307749 0,0.454833 -0.0518,0.207223 -0.22901,0.229009 -0.30323,0.303222 -0.0483,0.04833 0,0.758046 0,0.758054 0.47906,0.479055 1.56403,-0.03456 2.12256,0.151611 0.0479,0.01598 -0.016,0.103667 0,0.151611 0.0357,0.107205 0.12944,0.192412 0.15161,0.303221 0.0601,0.300682 0.0886,1.250274 0,1.516109 -0.0427,0.127992 -0.84135,0.826372 -0.60645,1.061276 0.19356,0.193553 0.96407,-0.371506 1.06128,-0.454832 0.53044,-0.45466 2.33057,-3.263132 2.57738,-3.941883 0.9403,-2.585812 -0.0211,-0.331091 -0.15161,-0.151611 -0.46349,0.637309 -1.29779,1.179533 -1.97094,1.516109 -0.0452,0.0226 0,-0.101074 0,-0.151611 0,-0.454833 -0.0252,-0.910365 0,-1.364498 0.014,-0.251906 0.48155,-3.48705 0.75806,-3.48705 0.15981,0 -0.0386,0.341829 -0.15161,0.454833 -0.2791,0.279099 -0.60645,0.505369 -0.90967,0.758054 -1.46524,1.221038 -0.41949,0.263948 -1.81933,1.819331 -0.16904,0.187819 -0.74661,0.665079 -0.60644,0.454832 0.59552,-0.89328 5.56026,-4.228657 6.06443,-4.396715 0.0522,-0.01741 -0.1393,1.00793 -0.15161,1.061276 -0.3719,1.611554 -0.16859,0.566295 -0.90967,2.122552 -0.33094,0.694983 -0.60113,1.417335 -0.90966,2.122552 -0.0453,0.10353 -0.15161,0.190218 -0.15161,0.303222 0,0.07147 0.12651,-0.08469 0.15161,-0.151611 0.12918,-0.344489 0.20215,-0.707517 0.30322,-1.061276 0.20215,-0.404295 0.43857,-0.7932 0.60644,-1.212887 0.42541,-1.063507 0.6551,-2.202907 0.75806,-3.335439 0.12097,-1.33072 -0.66355,-2.587234 -1.3645,-3.638661 -0.0154,-0.02305 -0.45997,-0.747768 -0.60644,-0.454832 -0.16091,0.321825 0,1.339892 0,1.667719 0,0.555907 -0.0995,1.12078 0,1.66772 0.0487,0.26776 0.24418,0.492385 0.30322,0.758054 0.0439,0.197334 -0.0251,0.405857 0,0.606444 0.0793,0.634368 0.15161,1.173358 0.15161,1.81933"
       id="path35" />
    <path
       style="fill:none;fill-opacity:1;stroke:#000000;stroke-width:3.3;stroke-linecap:round;stroke-linejoin:round;stroke-dasharray:none;stroke-opacity:1"
       d="m 48.363866,114.92104 c 0.227215,6.14269 -0.608341,8.99375 -3.790271,14.40303 -1.138309,1.93512 -2.825446,3.58251 -4.245105,5.30638 -0.890956,1.08187 -1.701023,2.23999 -2.577384,3.33544 -0.157851,0.19731 -0.260715,0.44468 -0.454833,0.60644 -0.122771,0.10231 -0.341829,0.0386 -0.454833,0.15161 -0.113004,0.11301 -0.08014,0.31189 -0.151611,0.45483 -0.114829,0.22966 -0.422237,0.42224 -0.606443,0.60645"
       id="path38" />
    <path
       style="fill:none;fill-opacity:1;stroke:#000000;stroke-width:3.3;stroke-linecap:round;stroke-linejoin:round;stroke-dasharray:none;stroke-opacity:1"
       d="m 41.086545,137.35944 c 1.81413,2.06377 4.664674,3.58198 6.974099,5.00316 3.694548,2.27357 7.855086,3.83603 12.12887,4.54833 0.508365,0.0847 1.003562,0.24927 1.516108,0.30322 0.452334,0.0476 0.91045,-0.0267 1.364498,0 2.129721,0.12528 4.228951,0.30322 6.367656,0.30322 1.862114,0 3.611965,-0.0362 5.457992,-0.15161 0.403508,-0.0252 0.812654,0.0572 1.212887,0 0.316411,-0.0452 0.596248,-0.24054 0.909665,-0.30322 0.448744,-0.0898 0.913093,-0.0764 1.364498,-0.15161 0.205534,-0.0343 0.459104,-0.004 0.606443,-0.15161 0.03574,-0.0357 -0.04205,-0.12358 0,-0.15161 0.367873,-0.24525 2.700391,-0.75806 3.183828,-0.75806"
       id="path39" />
    <path
       style="fill:#ffffff;fill-opacity:1;stroke:#000000;stroke-width:3.3;stroke-linecap:round;stroke-linejoin:round;stroke-dasharray:none;stroke-opacity:1"
       d="m 98.412843,114.98543 c 2.787097,0.71206 7.954857,-1.61952 9.253597,0.74292 -0.71953,4.98632 -1.50166,7.96883 -3.10914,12.74267 0.11625,4.16239 5.35852,0.93152 7.5295,-0.002 1.64739,-1.78001 4.33043,-1.91987 3.12315,1.04855 -0.5187,5.04956 -0.8271,11.2215 -5.51704,14.29593 -5.203,2.27177 -11.260674,2.47809 -16.721812,0.99832 -2.809576,-1.38633 -6.33499,-2.07634 -8.250709,-4.70401 -1.783532,-3.36459 -1.242612,-7.40994 -0.608945,-10.99466 2.915184,-0.59933 6.69653,1.73035 10.104088,1.12548 4.141802,0.82675 6.741988,-3.05135 5.504004,-6.84958 -0.394417,-3.47318 -0.979751,-4.92671 -1.306693,-8.40319 z"
       id="path40"
       sodipodi:nodetypes="ccccccccccccc" />
    <path
       style="fill:none;fill-opacity:1;stroke:#000000;stroke-width:3.3;stroke-linecap:round;stroke-linejoin:round;stroke-dasharray:none;stroke-opacity:1"
       d="m 100.88772,117.81386 c 0.82495,-0.20624 1.64177,-0.44831 2.47487,-0.61872 0.0367,-0.008 2.4922,-0.43327 2.82843,-0.26516 0.2637,0.13185 -0.7585,0.83404 -1.41422,1.32582 -1.06431,0.79824 -1.99914,1.81083 -3.09359,2.56327 -0.0278,0.0191 -0.61872,0.0952 -0.61872,0.26516 0,0.0295 0.0589,0 0.0884,0 0.30479,0 0.46101,0.0145 0.7955,-0.0884 0.89604,-0.2757 1.77754,-0.79549 2.74004,-0.79549 0.0295,0 -0.0604,-0.009 -0.0884,0 -0.23882,0.0796 -0.47573,0.166 -0.70711,0.26516 -0.8324,0.35675 -1.48506,0.91254 -2.20971,1.41422 -0.1953,0.1352 -0.42412,0.21733 -0.61872,0.35355 -0.1024,0.0717 -0.16755,0.18708 -0.26516,0.26516 -0.0829,0.0664 -0.36595,0.14319 -0.26517,0.17678 1.23201,0.41067 2.91839,0.26517 4.15426,0.26517 0.29422,0 0.97613,-0.0942 0.79549,0.17677 -0.60876,0.91315 -2.19666,1.59817 -3.09359,2.20971 -0.36515,0.24896 -0.6973,-1.45606 -1.06066,-1.2045 -0.0242,0.0168 -0.0884,-0.0295 -0.0884,0 0,0.47096 2.55662,-0.0751 2.38649,0.26516 -0.21854,0.43707 -0.32613,0.29641 -0.7955,0.70711 -1.4052,1.22955 -0.148,0.43577 -1.59099,1.23744 -0.26517,0.14731 -0.52418,0.30628 -0.7955,0.44194 -0.0263,0.0132 -0.0675,-0.0208 -0.0884,0 -0.0208,0.0208 0,0.0589 0,0.0884 0,0.435 1.70955,0.44194 2.03293,0.44194 0.12148,0 0.45463,0.021 0.35355,0.0884 -0.0775,0.0517 -0.18372,0.0431 -0.26516,0.0884 -0.18573,0.10318 -0.34587,0.24815 -0.53033,0.35356 -0.6062,0.34639 -1.24902,0.62533 -1.85616,0.97227 -0.0872,0.0498 -0.403043,0.12729 -0.176775,0.35355 0.08591,0.0859 0.237195,0.0535 0.353555,0.0884 0.17848,0.0535 0.34586,0.15043 0.53033,0.17678 0.33439,0.0478 1.24917,-0.0255 1.59099,0.0884 0.13975,0.0466 -0.21143,0.2264 -0.35355,0.26516 -0.61226,0.16698 -1.26419,-0.0596 -1.85616,0.0884 -0.0286,0.007 -0.0132,0.062 0,0.0884 0.28203,0.56406 3.23777,0.17677 3.88909,0.17677 h -0.0884 -0.35355 c -0.17678,0 -0.35511,-0.0234 -0.53033,0 -0.73718,0.0983 -1.47694,0.31263 -2.20971,0.44195 -0.61549,0.10861 -1.238074,0.17245 -1.856159,0.26516 -0.825786,0.12387 -1.646122,0.16954 -2.474874,0.26517 -1.154904,0.13325 -2.302268,0.32829 -3.447145,0.53033 -1.442537,0.25456 -2.854853,0.61871 -4.331029,0.61871 -0.20624,0 -0.415285,0.0339 -0.618719,0 -0.475184,-0.0792 -0.649766,-0.531 -1.06066,-0.7071 -0.306716,-0.13145 -0.657259,-0.22755 -0.972272,-0.35356 -0.0259,-0.0104 -0.464989,-0.1755 -0.53033,-0.0884 -0.554501,0.73933 -0.441941,1.79574 -0.441941,2.65165 0,1.50242 0.234449,2.82466 0.707106,4.24264 0.101951,0.30585 0.184459,0.97995 0.441942,1.23743 0.217507,0.21751 0.207609,-0.58171 0.265165,-0.88388 0.06164,-0.32359 0.137837,-0.64518 0.176777,-0.97227 0.108474,-0.91118 0.156691,-1.82886 0.265165,-2.74004 0.03894,-0.32709 0.09688,-0.6527 0.176777,-0.97227 0.117538,-0.47016 0.358719,-0.61872 0.176776,-0.61872 -0.05893,0 0,0.11785 0,0.17678 v 0.61871 c 0,0.50087 -0.03407,1.0029 0,1.50261 0.05445,0.79853 0.17513,1.59117 0.265165,2.38648 0.19532,1.72533 0.342076,3.48802 0.972272,5.12653 0.01058,0.0275 0.05893,0 0.08839,0 0.156587,0 0.166177,-0.6295 0.176776,-0.88389 0.01963,-0.47099 0,-0.94281 0,-1.41421 0,-3.84345 0.01628,0.33232 -0.08839,-5.21491 -0.0048,-0.2534 0.0052,-3.0936 0,-3.0936 -0.02946,0 -0.0033,0.0591 0,0.0884 0.02623,0.23609 0.02551,0.47805 0.08839,0.70711 0.350362,1.27632 0.753199,2.53775 1.149049,3.8007 0.476708,1.52093 0.944135,3.05238 1.59099,4.5078 0.04642,0.10446 0.51899,1.42556 0.618718,1.32583 0.02083,-0.0208 -0.01161,-0.0613 0,-0.0884 0.07786,-0.18166 0.226405,-0.33652 0.265165,-0.53033 0.113958,-0.56979 0.100642,-2.23767 0.08839,-2.74004 -0.06552,-2.68647 -0.353554,-5.35402 -0.353554,-8.04334 v 0.0884 c 0,0.67765 -0.03562,1.35623 0,2.03293 0.05286,1.00424 0.163081,2.00478 0.265165,3.00521 0.192558,1.88706 0.368022,3.77663 0.618719,5.65685 0.07011,0.52582 0.166144,0.96164 0.53033,1.32583 0.02083,0.0208 -0.0027,-0.0591 0,-0.0884 0.02681,-0.29488 0.111098,-0.58866 0.08839,-0.88389 -0.03679,-0.4782 -0.146299,-0.94955 -0.265165,-1.41421 -0.726817,-2.8412 -0.617323,-1.88503 -1.502602,-4.59619 -0.25162,-0.77059 -0.121011,-1.84844 -0.795495,-2.2981 -0.25,-0.16667 -0.151824,0.58446 -0.176776,0.88388 -0.150243,1.80292 -0.09593,3.40944 0.265165,5.21492 0.107394,0.53697 0.404,0.67183 0.441941,0.61871 1.127756,-1.57885 1.467907,-3.91221 1.767767,-5.65685 0.09994,-0.58147 0.0527,-1.17886 0.08839,-1.76777 0.02324,-0.38344 0.06583,-0.76556 0.08839,-1.14905 0.0069,-0.11764 0.117851,-0.35355 0,-0.35355 -0.117851,0 0,0.2357 0,0.35355 0,0.50087 -0.04794,1.00404 0,1.50261 0.09012,0.93727 0.813776,5.51052 0.972272,6.36396 0.121394,0.65366 0.627869,3.98891 1.325825,4.86136 0.116405,0.1455 0.155005,-0.34527 0.176777,-0.53033 0.135941,-1.1555 0.108505,-1.52637 0,-2.82843 -0.157279,-1.88734 -0.373052,-3.76951 -0.53033,-5.65685 -0.177105,-2.12527 -0.192772,-4.24602 -0.441942,-6.36397 -0.0034,-0.0293 0,0.0589 0,0.0884 0,0.26517 -0.02202,0.53125 0,0.7955 0.06647,0.79762 0.159382,1.59311 0.265165,2.38648 0.129966,0.97475 0.263257,1.94982 0.441942,2.91682 0.156616,0.84757 0.65193,4.66262 1.502602,6.36396 0.0559,0.1118 0.153361,0.20926 0.265165,0.26516 0.07424,0.0371 0.184159,-0.32709 0.265165,-0.61871 0.09754,-0.35114 0.24278,-0.69692 0.265165,-1.06066 0.09593,-1.55886 0.04886,-3.12328 0.08839,-4.68459 0.0417,-1.64713 0.08839,-3.21096 0.08839,-4.86136 0,-0.0295 -0.0021,0.059 0,0.0884 0.02737,0.38317 0.01812,0.77138 0.08839,1.14905 0.401614,2.15868 0.887178,4.30089 1.325825,6.45235 0.180073,0.88322 0.26983,1.78873 0.53033,2.65165 0.21355,0.70739 0.56507,1.36633 0.88388,2.03293 0.0127,0.0266 0.0676,0.0208 0.0884,0 0.10417,-0.10416 0.22469,-0.2119 0.26516,-0.35355 0.39865,-1.39527 -0.19394,-4.55675 -0.35355,-5.83363 -0.1675,-1.34002 -0.79549,-4.88015 -0.79549,-6.98268 0,-0.0295 -0.002,0.059 0,0.0884 0.0272,0.35373 0.0474,0.70825 0.0884,1.06066 0.4848,4.1692 1.17504,8.32363 1.85616,12.46275 0.056,0.34028 0.10971,1.21612 0.35355,0.97228 0.0208,-0.0208 -0.004,-0.0592 0,-0.0884 0.0258,-0.20673 0.0793,-0.41058 0.0884,-0.61872 0.0205,-0.47096 0,-0.94281 0,-1.41421 0,-2.51037 -0.17677,-5.00145 -0.17677,-7.51301 0,-1.62867 -0.054,-3.24584 0.17677,-4.86136 0.004,-0.0292 -0.004,0.0592 0,0.0884 0.0551,0.41301 0.1327,0.8231 0.17678,1.23743 0.10328,0.97081 0.15967,1.94625 0.26516,2.91682 0.18916,1.74024 0.37116,3.48201 0.61872,5.21491 0.0607,0.42467 0.1156,0.8805 0.35356,1.23744 0.0817,0.12257 0.23142,-0.21016 0.26516,-0.35356 0.0888,-0.37722 0.12197,-0.76542 0.17678,-1.14904 0.23581,-1.65072 0.37487,-2.70936 0.53033,-4.41942 0.0717,-0.78863 0.11365,-2.68961 0.35355,-3.88909 0.006,-0.0289 -0.001,0.059 0,0.0884 0.0281,0.58932 0.0464,1.17927 0.0884,1.76777 0.0758,1.06163 0.16357,2.1225 0.26516,3.18198 0.10078,1.05093 0.62218,6.89775 1.14905,7.42462 0.0466,0.0466 0.0766,-0.11196 0.0884,-0.17678 0.0486,-0.26725 0.15594,-0.52466 0.17678,-0.79549 0.0384,-0.4994 -0.0114,-1.00187 0,-1.50261 0.0763,-3.3549 0.1076,-6.75398 0.61872,-10.07627 0.004,-0.0291 -0.004,0.0592 0,0.0884 0.0258,0.20673 0.074,0.41088 0.0884,0.61872 0.0446,0.64731 0.0625,1.29621 0.0884,1.94454 0.27865,6.96607 -0.17651,-3.79275 0.17678,6.98268 0.0943,2.87468 0.0884,0.20327 0.0884,1.06066 0,0.0295 -0.009,-0.0604 0,-0.0884 0.0502,-0.15052 0.14566,-0.28636 0.17677,-0.44194 0.0874,-0.43719 0.11786,-0.88388 0.17678,-1.32582 0.14732,-0.67765 0.29294,-1.35566 0.44194,-2.03293 0.31039,-1.41084 0.55302,-2.83647 0.88389,-4.24265 0.009,-0.0398 0.50499,-1.83081 0.61871,-1.94454 0.0208,-0.0208 -0.002,0.059 0,0.0884 0.027,0.3243 0.066,0.64762 0.0884,0.97227 0.24151,3.5018 -0.15896,-0.63521 0.44194,4.77297 0.0728,0.65498 0.009,0.72512 0.26517,1.23744 0.0132,0.0264 -0.006,-0.0596 0,-0.0884 0.0527,-0.23717 0.12293,-0.47019 0.17678,-0.70711 0.0935,-0.41135 0.17502,-0.82533 0.26516,-1.23743 0.4313,-1.97166 0.29045,-1.24658 0.70711,-3.27037 0.14422,-0.70049 0.44194,-1.64163 0.44194,-2.38649"
       id="path41"
       sodipodi:nodetypes="ccssssscscsssccssscssssccssscsssscsscsccscsssssssccsssssssssssssssssscssssssscssssscsssssscssssssssssscssssssssssscsssssssccssccssccssssccsccssscsccccccscscscsccsscsssc" />
    <path
       style="fill:#000000;fill-opacity:1;stroke:#000000;stroke-width:3.3;stroke-linecap:round;stroke-linejoin:round;stroke-dasharray:none;stroke-opacity:1"
       d="m 91.025583,51.889676 c -6.296811,0.41642 -12.188488,-1.323623 -18.48199,-0.78767 -3.641514,-2.081235 -7.241244,5.432148 -1.893996,4.521807 5.273652,0.09364 10.53371,0.75372 15.802576,0.426429 2.70543,0.291778 6.823557,-0.551428 4.57341,-4.160566 z"
       id="path42"
       sodipodi:nodetypes="ccccc" />
    <path
       style="fill:#000000;fill-opacity:1;stroke:#000000;stroke-width:3.3;stroke-linecap:round;stroke-linejoin:round;stroke-dasharray:none;stroke-opacity:1"
       d="m 101.875,51.625 c -0.0708,1.299139 0.13943,2.632215 1.375,3.25 0.17707,0.08854 0.44394,0.06465 0.625,0.125 0.0559,0.01863 0.0691,0.106366 0.125,0.125 0.39528,0.131762 0.83333,0 1.25,0 0.77563,0 1.60304,0.0772 2.375,0 0.62724,-0.06272 1.24776,-0.187275 1.875,-0.25 1.87083,-0.187083 3.7339,-0.625 5.625,-0.625 1.65064,0 -0.40858,0.04086 1.25,-0.125 0.6516,-0.06516 1.34469,0 2,0 0.37057,0 3.18717,0.156416 3.5,0 0.26598,-0.132991 0.0531,-0.534356 0.125,-0.75 0.0186,-0.0559 0.10637,-0.0691 0.125,-0.125 0.0944,-0.283292 -0.0961,-0.919856 -0.25,-1.125 -0.0559,-0.07454 -0.19035,-0.05342 -0.25,-0.125 -0.15554,-0.186644 -0.21689,-0.440534 -0.375,-0.625 -0.31672,-0.369505 -1.23258,-0.92879 -1.625,-1.125 -0.69833,-0.349164 -1.21583,-0.512975 -2,-0.625 -2.69399,-0.384856 -5.42523,-0.519976 -8.125,-0.25 -0.6173,0.06173 -1.2596,-0.07692 -1.875,0 -0.38908,0.04863 -0.8731,0.155775 -1.25,0.25 -0.18078,0.04519 -0.31922,0.204806 -0.5,0.25 -0.35351,0.08838 -0.80663,0.162754 -1.125,0.375 -0.16572,0.110482 -0.43759,0.312529 -0.625,0.375 -0.27004,0.09001 -0.60032,0.05633 -0.875,0.125 -0.11433,0.02858 -0.1382,0.212732 -0.25,0.25 -0.2512,0.08373 -0.82232,-0.171141 -1,0.125 -0.0884,0.147314 -0.0833,0.333333 -0.125,0.5 z"
       id="path43" />
  </g>
</svg>
